<?xml version="1.0" encoding="utf-8"?>
<!-- Generator: Adobe Illustrator 23.1.0, SVG Export Plug-In . SVG Version: 6.00 Build 0)  -->
<svg version="1.1" id="Layer_1" xmlns="http://www.w3.org/2000/svg" xmlns:xlink="http://www.w3.org/1999/xlink" x="0px" y="0px"
	 viewBox="0 0 1314.5 569.3" style="enable-background:new 0 0 1314.5 569.3;" xml:space="preserve">
<style type="text/css">
	.st0{fill:#763C8F;}
	.st1{fill:#AC6F5C;}
	.st2{fill:#FFFFFF;}
</style>
<g id="Calque_2">
	<g id="Calque_11">
		<path class="st0" d="M306.1,335.9l-17.8,16.7l-1.5,1.5l0,0c-18.2,5.2-30.5,10.6-33.2,6.6c-2.3-3.4,4-11.5,7.3-15.7
			c7-8.7,16.2-15.4,26.7-19.4c-3-1.3-5.7-3.1-8-5.5c-1.5-1.5-7.1-7.3-5.9-10.4c2-5,21-0.4,26.8,1.1l1.3,0.4c0,0,1.2,0.3,2.7,0.8v0.5
			v0.2v0.5l0.1,2c0.3,4.5,0.6,9.2,0.9,13.6C305.9,331.6,306,334,306.1,335.9z"/>
		<path class="st1" d="M372.9,547.5c-11.6,11-22.5,15.3-25.4,16.4c-11.8,4.4-24.6,5.8-37.1,3.8c-13.3-2.1-25.9-7.7-36.3-16.2
			c-1.1-0.9-2.2-1.9-3.1-2.9c-3.5-3.7-9.3-3.8-13-0.4c-0.1,0.1-0.2,0.2-0.3,0.3c-1.2,1.3-2.6,2.4-4,3.5
			c-8.7,6.3-32.5,20.8-62.4,15.5c-28.3-5.1-44.4-24.7-49.7-31.6c-12.5-16.4-18.7-36.3-21-56.1l70,7.2c0.3,0,0.7,0.1,1,0
			c5.4,0,9.8-4.5,9.7-9.9c0-5-3.8-9.1-8.7-9.7l-64.5-6.7c-4.9-0.5-8.6-4.8-8.4-9.8v-0.2c0.2-5.2,4.6-9.3,9.8-9c0.2,0,0.4,0,0.6,0
			l64.5,6.6c0.3,0,0.7,0.1,1,0c5.4,0,9.8-4.4,9.8-9.8c0-5-3.8-9.3-8.8-9.8l-62.7-6.5c-5.2-0.5-8.9-5.2-8.4-10.3
			c0.1-0.5,0.1-1,0.3-1.5l0.1-0.2c1.2-4.4,5.4-7.4,10-6.9l62.7,6.5c0.3,0,0.7,0,1,0c5.4,0,9.8-4.4,9.8-9.8c0-5-3.8-9.3-8.8-9.8
			l-64-6.6c5.5-10,11.4-17.3,18.3-26.1c3-3.8,22.6-24.8,18.2-52c-1.1-6.4-3.3-12.6-6.6-18.3c17.3,1.7,29.3,7.4,37.2,12.5
			c27.5,17.7,43,52.9,44,94.9l-9.1-1c-0.3,0-0.7,0-1,0c-5.4,0-9.8,4.4-9.8,9.8c0,5,3.8,9.3,8.8,9.8l4.3,0.4c3.5,0.4,6,3.5,5.7,7
			c0,0.1,0,0.1,0,0.2c-0.3,2-0.6,4.3-0.8,6.4c-0.5,3.4-3.5,5.8-6.9,5.4l-4.1-0.4c-0.3,0-0.7,0-1,0c-5.4,0-9.8,4.4-9.8,9.8
			c0,5,3.8,9.3,8.8,9.8h0.6c3.5,0.4,6,3.5,5.6,7c0,0.2-0.1,0.4-0.1,0.6c-0.4,1.9-0.8,3.9-1.1,6c-0.6,3.3-3.6,5.6-6.9,5.3l0,0
			c-0.3,0-0.7-0.1-1,0c-5.4,0-9.8,4.5-9.7,9.9c0,5,3.8,9.1,8.7,9.7l7,0.7c0.2,3.4,0.7,6.8,1.5,10.1c1,3.4,2.6,6.6,4.8,9.4
			c1.7,1.9,3.7,3.6,5.9,4.9c2.3,1.4,4.9,2.4,7.6,3c-1.3-5.5-2-11.2-2-16.9c0-0.5,0-1,0-1.5c0.8-38.7,32.4-69.7,71.2-69.7
			c13.2,0,28.4,4.6,30,6.6c-10.2-12.7-21.8-19-40.7-18.1c-9.9,0.5-26.2,6.9-39.3,2c-2-0.8-4-1.7-5.8-2.9c-5.6-3.7-10.1-8.9-12.8-15
			c8-4.4,29.4-10.7,33.9-31c1-4.2,1.2-8.5,0.7-12.7l20.6-19.6l-2.4-46.8c0.4,0.2,52.5,23.6,83.5,84.5l0,0c3.7,7.3,6.8,14.9,9.2,22.7
			c4.7,15.2,7.2,31.1,7.2,47C408.7,457.9,408.9,513.6,372.9,547.5z"/>
		<path class="st0" d="M248.8,127.7c0,19.4,2.8,93.2-45.8,104.3c-31.2,7.1-77.3-25.2-84.9-73.1C107.4,91.8,174.2-7.8,202.2,0.5
			C230.8,8.9,248.8,74.3,248.8,127.7z"/>
		<path class="st0" d="M279,127.7c0,19.4-2.8,93.2,45.8,104.3c31.2,7.1,77.3-25.2,85-73.1C420.4,91.8,353.6-7.8,325.6,0.5
			C297,8.9,279,74.3,279,127.7z"/>
		<path class="st0" d="M120.3,329.6c0.1,9,1,71.7-35.8,86.3c-23.7,9.4-54.6-4.6-70.1-24.1c-42-52.8,17-169.5,55.2-170.7
			C97.4,220.2,119.6,279.5,120.3,329.6z"/>
		<path class="st0" d="M407.8,329.6c-0.1,9-1,71.7,35.8,86.3c23.7,9.4,54.6-4.6,70.1-24.1c42-52.8-17-169.5-55.2-170.7
			C430.8,220.2,408.6,279.5,407.8,329.6z"/>
		<g>
			<path class="st0" d="M464.9,310.8c-7.3,0-11.7-4.4-11.7-11.7V169.5c0-7.3,4.4-11.7,11.7-11.7h89.2c7.3,0,11.7,4.4,11.7,11.7v23.8
				c0,7.3-4.4,11.7-11.7,11.7h-46.5v11.8h30.3c7.3,0,11.7,4.4,11.7,11.7v24c0,7.3-4.4,11.7-11.7,11.7h-30.3v34.9
				c0,7.3-4.4,11.7-11.7,11.7H464.9z"/>
			<path class="st2" d="M554.1,162.3c4.8,0,7.2,2.4,7.2,7.2v23.8c0,4.8-2.4,7.2-7.2,7.2h-51v20.8h34.8c4.8,0,7.2,2.4,7.2,7.2v24
				c0,4.8-2.4,7.2-7.2,7.2h-34.8v39.4c0,4.8-2.4,7.2-7.2,7.2h-31c-4.8,0-7.2-2.4-7.2-7.2V169.5c0-4.8,2.4-7.2,7.2-7.2H554.1
				 M554.1,153.3h-89.2c-9.8,0-16.2,6.4-16.2,16.2v129.6c0,9.8,6.4,16.2,16.2,16.2h31c9.8,0,16.2-6.4,16.2-16.2v-30.4h25.8
				c9.8,0,16.2-6.4,16.2-16.2v-24c0-9.8-6.4-16.2-16.2-16.2h-25.8v-2.8h42c9.8,0,16.2-6.4,16.2-16.2v-23.8
				C570.3,159.7,564,153.3,554.1,153.3L554.1,153.3z"/>
		</g>
		<g>
			<path class="st0" d="M588.5,310.8c-7.3,0-11.7-4.4-11.7-11.7V169.5c0-7.3,4.4-11.7,11.7-11.7h31c7.3,0,11.7,4.4,11.7,11.7V264
				h18.4v-27.9c0-7.3,4.4-11.7,11.7-11.7h29c7.3,0,11.7,4.4,11.7,11.7v63c0,7.3-4.4,11.7-11.7,11.7H588.5z"/>
			<path class="st2" d="M619.5,162.3c4.8,0,7.2,2.4,7.2,7.2v99h27.4v-32.4c0-4.8,2.4-7.2,7.2-7.2h29c4.8,0,7.2,2.4,7.2,7.2v63
				c0,4.8-2.4,7.2-7.2,7.2H588.5c-4.8,0-7.2-2.4-7.2-7.2V169.5c0-4.8,2.4-7.2,7.2-7.2H619.5 M619.5,153.3h-31
				c-9.8,0-16.2,6.4-16.2,16.2v129.6c0,9.8,6.4,16.2,16.2,16.2h101.8c9.8,0,16.2-6.4,16.2-16.2v-63c0-9.8-6.4-16.2-16.2-16.2h-29
				c-9.8,0-16.2,6.4-16.2,16.2v23.4h-9.4v-90C635.7,159.7,629.4,153.3,619.5,153.3L619.5,153.3z"/>
		</g>
		<g>
			<path class="st0" d="M781.1,313.8c-12.7,0-23.4-1-31.7-3c-8.6-2.1-15.5-5.1-20.6-9.1c-5-3.8-8.8-8.9-11-14.9
				c-2.1-6-3.1-12.1-3-18.3v-98.9c0-7.3,4.4-11.7,11.7-11.7h31.4c7.3,0,11.7,4.4,11.7,11.7v91.2c0,1.3,0.5,2.5,1.4,3.3
				c0.1,0.1,1.9,1.6,10.5,1.6c8.8,0,10.5-1.5,10.6-1.5l0.1-0.1c0.9-0.8,1.5-2,1.4-3.2l0-91.3c0-7.3,4.4-11.7,11.7-11.7h30.4
				c7.3,0,11.7,4.4,11.7,11.7v99c0.1,6.2-0.9,12.3-2.9,18.2c-2.2,6-6.1,11.2-11.1,15c-5,3.9-12,7-20.5,9.1
				C804.5,312.8,793.8,313.8,781.1,313.8z"/>
			<path class="st2" d="M757.9,162.3c4.8,0,7.2,2.4,7.2,7.2v91.2c0,2.6,1.1,5,3,6.7c2,1.8,6.5,2.7,13.4,2.7c7.1,0,11.6-0.9,13.6-2.7
				c1.9-1.7,3-4.1,3-6.7v-91.2c0-4.8,2.4-7.2,7.2-7.2h30.4c4.8,0,7.2,2.4,7.2,7.2l0,99c0.1,5.7-0.8,11.3-2.7,16.7
				c-1.9,5.1-5.2,9.6-9.6,12.9c-4.6,3.6-10.9,6.4-18.9,8.3c-8,1.9-18.2,2.9-30.6,2.9c-12.4,0-22.6-1-30.6-2.9
				c-8-1.9-14.3-4.7-18.9-8.3c-4.4-3.3-7.7-7.8-9.6-12.9c-1.9-5.4-2.8-11-2.7-16.7v-99c0-4.8,2.4-7.2,7.2-7.2H757.9 M757.9,153.3
				h-31.4c-9.8,0-16.2,6.4-16.2,16.2v98.9c-0.1,6.7,1,13.4,3.2,19.7l0,0.1l0,0.1c2.5,6.7,6.8,12.6,12.6,16.9
				c5.6,4.4,13.1,7.7,22.3,9.9c8.8,2.1,19.5,3.2,32.7,3.2c13.2,0,23.9-1,32.7-3.2c9.2-2.2,16.7-5.6,22.3-9.9
				c5.7-4.3,10.1-10.2,12.6-16.9l0-0.1l0-0.1c2.2-6.4,3.3-13,3.2-19.7l0-98.9c0-9.8-6.4-16.2-16.2-16.2h-30.4
				c-6.1,0-9.7,2.4-11.8,4.4c-2,2-4.4,5.7-4.4,11.8v91c-1,0.3-3.2,0.6-7.6,0.6c-4.3,0-6.5-0.4-7.4-0.6v-91
				C774.1,159.7,767.8,153.3,757.9,153.3L757.9,153.3z"/>
		</g>
		<g>
			<path class="st0" d="M876.7,310.8c-7.3,0-11.7-4.4-11.7-11.7V169.5c0-7.3,4.4-11.7,11.7-11.7h89.2c7.3,0,11.7,4.4,11.7,11.7v23.8
				c0,7.3-4.4,11.7-11.7,11.7h-46.5v11.8h30.3c7.3,0,11.7,4.4,11.7,11.7v24c0,7.3-4.4,11.7-11.7,11.7h-30.3v34.9
				c0,7.3-4.4,11.7-11.7,11.7H876.7z"/>
			<path class="st2" d="M965.9,162.3c4.8,0,7.2,2.4,7.2,7.2v23.8c0,4.8-2.4,7.2-7.2,7.2h-51v20.8h34.8c4.8,0,7.2,2.4,7.2,7.2v24
				c0,4.8-2.4,7.2-7.2,7.2h-34.8v39.4c0,4.8-2.4,7.2-7.2,7.2h-31c-4.8,0-7.2-2.4-7.2-7.2V169.5c0-4.8,2.4-7.2,7.2-7.2H965.9
				 M965.9,153.3h-89.2c-9.8,0-16.2,6.4-16.2,16.2v129.6c0,9.8,6.4,16.2,16.2,16.2h31c6.1,0,9.7-2.4,11.8-4.4c2-2,4.4-5.7,4.4-11.8
				v-30.4h25.8c9.8,0,16.2-6.4,16.2-16.2v-24c0-9.8-6.4-16.2-16.2-16.2h-25.8v-2.8h42c9.8,0,16.2-6.4,16.2-16.2v-23.8
				C982.1,159.7,975.8,153.3,965.9,153.3L965.9,153.3z"/>
		</g>
		<g>
			<path class="st0" d="M1000.3,310.8c-7.3,0-11.7-4.4-11.7-11.7V169.5c0-7.3,4.4-11.7,11.7-11.7h89.2c7.3,0,11.7,4.4,11.7,11.7
				v23.8c0,7.3-4.4,11.7-11.7,11.7H1043v11.8h30.3c7.3,0,11.7,4.4,11.7,11.7v24c0,7.3-4.4,11.7-11.7,11.7H1043v34.9
				c0,7.3-4.4,11.7-11.7,11.7H1000.3z"/>
			<path class="st2" d="M1089.5,162.3c4.8,0,7.2,2.4,7.2,7.2v23.8c0,4.8-2.4,7.2-7.2,7.2h-51v20.8h34.8c4.8,0,7.2,2.4,7.2,7.2v24
				c0,4.8-2.4,7.2-7.2,7.2h-34.8v39.4c0,4.8-2.4,7.2-7.2,7.2h-31c-4.8,0-7.2-2.4-7.2-7.2V169.5c0-4.8,2.4-7.2,7.2-7.2H1089.5
				 M1089.5,153.3h-89.2c-9.8,0-16.2,6.4-16.2,16.2v129.6c0,9.8,6.4,16.2,16.2,16.2h31c9.8,0,16.2-6.4,16.2-16.2v-30.4h25.8
				c9.8,0,16.2-6.4,16.2-16.2v-24c0-9.8-6.4-16.2-16.2-16.2h-25.8v-2.8h42c9.8,0,16.2-6.4,16.2-16.2v-23.8
				C1105.7,159.7,1099.4,153.3,1089.5,153.3L1089.5,153.3z"/>
		</g>
		<g>
			<path class="st1" d="M545.7,510.8c-7.3,0-11.7-4.4-11.7-11.7v-30.6c0-2.9-0.6-3.7-0.6-3.7c-0.1-0.1-0.8-0.4-2.5-0.4h-23.5v34.7
				c0,7.3-4.4,11.7-11.7,11.7h-30.8c-7.3,0-11.7-4.4-11.7-11.7V369.5c0-7.3,4.4-11.7,11.7-11.7h66.6c10.8,0,19.2,1.5,25.6,4.7
				c6.6,3.2,11.4,7.9,14.3,13.8c2.8,6.1,4.2,12.8,4,19.5v9.1c0.1,5.4-0.8,10.8-2.7,15.9l-0.1,0.2c-0.7,1.7-1.7,3.3-2.9,4.8
				c4.2,1.8,7.9,4.4,10.9,7.9c5.1,5.9,7.7,13.7,7.7,23.2v42.4c0,7.3-4.4,11.7-11.7,11.7H545.7z M517.9,419.4c2.2,0,3.1-0.5,3.2-0.7
				c0.7-1.2,1.1-2.6,1.1-4.1v-7.1c0.1-1.4-0.3-2.8-1.1-4.1c-0.2-0.2-1-0.7-3.2-0.7h-10.5v16.6H517.9z"/>
			<path class="st2" d="M531.5,362.3c10,0,17.9,1.4,23.6,4.2c5.7,2.8,9.8,6.7,12.2,11.7c2.5,5.5,3.7,11.5,3.6,17.5v9.2
				c0.1,4.8-0.7,9.7-2.4,14.2c-1.7,3.9-4.8,7-8.8,8.6c7.3,0.8,13.2,3.7,17.6,8.8c4.4,5.1,6.6,11.8,6.6,20.2v42.4
				c0,4.8-2.4,7.2-7.2,7.2h-31c-4.8,0-7.2-2.4-7.2-7.2v-30.6c0-3.1-0.6-5.3-1.7-6.6c-1.1-1.3-3.1-2-5.9-2h-28v39.2
				c0,4.8-2.4,7.2-7.2,7.2h-30.8c-4.8,0-7.2-2.4-7.2-7.2V369.5c0-4.8,2.4-7.2,7.2-7.2H531.5 M502.9,423.9h15c3.5,0,5.8-0.9,7-2.7
				c1.3-2,1.9-4.3,1.8-6.7v-6.8c0.1-2.4-0.5-4.7-1.8-6.7c-1.2-1.8-3.5-2.7-7-2.7l-15,0V423.9 M531.5,353.3h-66.6
				c-6.1,0-9.7,2.4-11.8,4.4c-2,2-4.4,5.7-4.4,11.8v129.6c0,9.8,6.4,16.2,16.2,16.2h30.8c6.1,0,9.7-2.4,11.8-4.4
				c2-2,4.4-5.7,4.4-11.8v-30.2h17.6v30.2c0,9.8,6.4,16.2,16.2,16.2h31c9.8,0,16.2-6.4,16.2-16.2v-42.4c0-10.6-3-19.4-8.8-26.1
				c-2.3-2.7-5-4.9-7.9-6.7c0.2-0.4,0.4-0.8,0.6-1.3l0.1-0.2l0.1-0.2c2.1-5.6,3.1-11.5,3-17.5v-9c0.1-7.3-1.4-14.7-4.4-21.3l0-0.1
				l0-0.1c-3.3-6.8-8.8-12.2-16.4-15.9C552,355,543,353.3,531.5,353.3L531.5,353.3z M511.9,407.3l5.8,0c0,0,0,0.1,0,0.1l0,0.2v0.2
				v6.8v0.2l0,0.2c0,0,0,0.1,0,0.1h-5.8V407.3L511.9,407.3z"/>
		</g>
		<g>
			<path class="st1" d="M690.3,510.8c-7.7,0-12.3-4.4-12.3-11.7v-23.5h-26.4v23.5c0,7.3-4.4,11.7-11.7,11.7h-29.4
				c-7.3,0-11.7-4.4-11.7-11.7v-52.8c0.1-5.1,0.8-10.1,2-14.9c1.6-6.3,3.7-12.6,6.1-18.7l17.4-45.3c2.1-6.2,7.2-9.6,14.4-9.6h53.8
				c7.1,0,12.1,3.4,14.2,9.6l17.4,45.3c2.4,6,4.4,12.4,6.1,18.7c1.3,4.8,1.9,9.8,2,14.8l0,52.9c0,7.3-4.4,11.7-11.7,11.7H690.3z
				 M674.4,430.2l-7.5-24.4c-0.1-0.2-0.2-0.3-0.2-0.4H663c-0.1,0.1-0.1,0.3-0.2,0.5l-7.5,24.3H674.4z"/>
			<path class="st2" d="M692.5,362.3c5.2,0,8.5,2.2,10,6.6l17.4,45.4c2.4,5.9,4.3,12,5.9,18.2c1.2,4.5,1.8,9.1,1.9,13.8v52.8
				c0,4.8-2.4,7.2-7.2,7.2h-30.2c-5.2,0-7.8-2.4-7.8-7.2v-28h-35.4l0,28c0,4.8-2.4,7.2-7.2,7.2h-29.4c-4.8,0-7.2-2.4-7.2-7.2v-52.8
				c0.1-4.7,0.7-9.3,1.9-13.8c1.6-6.2,3.6-12.3,5.9-18.2l17.4-45.4c1.5-4.4,4.9-6.6,10.2-6.6H692.5 M649.1,434.7h31.4l-9.4-30.4
				c-0.9-2.3-2.2-3.4-3.8-3.4h-5c-1.6,0-2.9,1.1-3.8,3.4L649.1,434.7 M692.5,353.3h-53.8c-9.1,0-15.9,4.6-18.7,12.5L602.7,411
				c-2.5,6.3-4.6,12.7-6.2,19.2c-1.3,5.2-2.1,10.5-2.2,15.9l0,0.1v0.1v52.8c0,6.1,2.4,9.7,4.4,11.8c2,2,5.7,4.4,11.8,4.4h29.4
				c6.1,0,9.7-2.4,11.8-4.4c2-2,4.4-5.7,4.4-11.8l0-19h17.4v19c0,9.8,6.6,16.2,16.8,16.2h30.2c6.1,0,9.7-2.4,11.8-4.4
				c2-2,4.4-5.7,4.4-11.8v-52.8v-0.1l0-0.1c-0.1-5.4-0.8-10.7-2.2-15.9c-1.7-6.5-3.7-12.9-6.2-19.2L711,365.9
				C708.2,357.9,701.5,353.3,692.5,353.3L692.5,353.3z M661.3,425.7l3.5-11.3l3.5,11.3H661.3L661.3,425.7z"/>
		</g>
		<g>
			<path class="st1" d="M759.5,510.8c-7.3,0-11.7-4.4-11.7-11.7V369.5c0-7.3,4.4-11.7,11.7-11.7h67.4c17.8,0,31.3,3.7,40.1,11
				c9,7.5,13.6,19.1,13.6,34.3v62.4c0,15.2-4.6,26.7-13.6,34.3c-8.8,7.3-22.3,11-40.1,11H759.5z M821.5,464c3.3,0,4.9-0.8,4.9-5.3
				v-48.6c0-3.9-1.1-5.1-4.9-5.1h-19.3v59H821.5z"/>
			<path class="st2" d="M826.9,362.3c16.8,0,29.2,3.3,37.2,10c8,6.7,12,16.9,12,30.8v62.4c0,13.9-4,24.1-12,30.8
				c-8,6.7-20.4,10-37.2,10h-67.4c-4.8,0-7.2-2.4-7.2-7.2V369.5c0-4.8,2.4-7.2,7.2-7.2H826.9 M797.7,468.5h23.8
				c6.3,0,9.4-3.3,9.4-9.8v-48.6c0-6.4-3.1-9.6-9.4-9.6h-23.8V468.5 M826.9,353.3h-67.4c-6.1,0-9.7,2.4-11.8,4.4
				c-2,2-4.4,5.7-4.4,11.8v129.6c0,6.1,2.4,9.7,4.4,11.8c2,2,5.7,4.4,11.8,4.4h67.4c19.2,0,33.2-4,43-12.1
				c10.1-8.4,15.2-21.1,15.2-37.7v-62.4c0-16.6-5.1-29.3-15.2-37.7C860.1,357.3,846.1,353.3,826.9,353.3L826.9,353.3z M806.7,409.5
				h14.8c0.1,0,0.3,0,0.4,0c0,0.2,0,0.4,0,0.6v48.6c0,0.3,0,0.6,0,0.8c-0.1,0-0.2,0-0.4,0h-14.8V409.5L806.7,409.5z"/>
		</g>
		<g>
			<path class="st1" d="M905.5,510.8c-7.3,0-11.7-4.4-11.7-11.7v-23.8c0-7.3,4.4-11.7,11.7-11.7h15.3v-58.2h-15.3
				c-7.3,0-11.7-4.4-11.7-11.7v-24.2c0-7.3,4.4-11.7,11.7-11.7h85.2c7.3,0,11.7,4.4,11.7,11.7v24.2c0,7.3-4.4,11.7-11.7,11.7h-14.9
				v58.2h14.9c7.3,0,11.7,4.4,11.7,11.7v23.8c0,7.3-4.4,11.7-11.7,11.7H905.5z"/>
			<path class="st2" d="M990.7,362.3c4.8,0,7.2,2.4,7.2,7.2v24.2c0,4.8-2.4,7.2-7.2,7.2h-19.4v67.2h19.4c4.8,0,7.2,2.4,7.2,7.2v23.8
				c0,4.8-2.4,7.2-7.2,7.2h-85.2c-4.8,0-7.2-2.4-7.2-7.2v-23.8c0-4.8,2.4-7.2,7.2-7.2h19.8v-67.2h-19.8c-4.8,0-7.2-2.4-7.2-7.2
				v-24.2c0-4.8,2.4-7.2,7.2-7.2H990.7 M990.7,353.3h-85.2c-9.8,0-16.2,6.4-16.2,16.2v24.2c0,9.8,6.4,16.2,16.2,16.2h10.8v49.2
				h-10.8c-9.8,0-16.2,6.4-16.2,16.2v23.8c0,9.8,6.4,16.2,16.2,16.2h85.2c9.8,0,16.2-6.4,16.2-16.2v-23.8c0-9.8-6.4-16.2-16.2-16.2
				h-10.4v-49.2h10.4c6.1,0,9.7-2.4,11.8-4.4c2-2,4.4-5.7,4.4-11.8v-24.2C1006.9,359.7,1000.6,353.3,990.7,353.3L990.7,353.3z"/>
		</g>
		<g>
			<path class="st1" d="M1082.5,513.8c-12.8,0-23.6-1-31.9-3c-8.7-2.1-15.6-5.2-20.7-9.2c-4.9-3.8-8.8-8.9-11-14.8
				c-2.1-6-3.2-12.1-3.1-18.4v-68.1c-0.1-6.2,0.9-12.3,3.1-18.2c2.3-6,6.1-11.1,11.1-14.9c5-3.9,11.9-7.1,20.6-9.2
				c8.4-2.1,19.1-3.1,32-3.1c12.8,0,23.6,1.1,32,3.1c8.7,2.1,15.6,5.3,20.6,9.2c4.9,3.8,8.7,8.9,10.9,14.9c2.1,6,3.1,12.1,3,18.3
				v68.1c0.1,6.2-0.9,12.3-2.9,18.2c-2.2,6-6,11.2-11,15c-5,3.9-11.9,7-20.6,9.1C1106.1,512.8,1095.4,513.8,1082.5,513.8
				L1082.5,513.8z M1082.5,402.8c-9,0-10.8,1.4-10.9,1.5c-1,0.8-1.5,1.9-1.4,3.1l0,53.9c0,1.3,0.5,2.5,1.4,3.3
				c0.1,0.1,1.9,1.6,10.9,1.6c9,0,10.8-1.4,10.8-1.5c1-0.9,1.5-2.1,1.5-3.3v-54c0-1.2-0.5-2.3-1.4-3.1
				C1093.4,404.2,1091.5,402.8,1082.5,402.8z"/>
			<path class="st2" d="M1082.5,359.3c12.5,0,22.8,1,30.9,3c8.1,2,14.4,4.8,18.9,8.4c4.3,3.3,7.6,7.8,9.5,12.9
				c1.9,5.4,2.8,11,2.7,16.7v68.2c0.1,5.7-0.8,11.3-2.7,16.7c-1.9,5.1-5.2,9.6-9.5,12.9c-4.5,3.6-10.8,6.4-18.9,8.3
				c-8.1,1.9-18.4,2.9-30.9,2.9c-12.5,0-22.8-1-30.9-2.9c-8.1-1.9-14.4-4.7-18.9-8.3c-4.3-3.3-7.7-7.8-9.6-12.9
				c-1.9-5.4-2.9-11-2.8-16.7v-68.2c-0.1-5.7,0.9-11.3,2.8-16.7c1.9-5.1,5.3-9.6,9.6-12.9c4.5-3.6,10.8-6.4,18.9-8.4
				C1059.7,360.3,1070,359.3,1082.5,359.3 M1082.5,470.7c7.3,0,12-0.9,13.9-2.7c1.9-1.7,3-4.2,2.9-6.7v-53.8c0.1-2.5-1-4.9-2.9-6.6
				c-1.9-1.7-6.6-2.6-13.9-2.6c0,0,0,0,0,0c-7.2,0-11.8,0.9-13.8,2.6c-2,1.6-3.1,4.1-3,6.6v53.8c0,2.6,1.1,5,3,6.7
				C1070.7,469.8,1075.3,470.7,1082.5,470.7 M1082.5,350.3L1082.5,350.3c-13.4,0-24.2,1.1-33.1,3.3c-9.4,2.3-16.7,5.6-22.3,10
				c-5.6,4.3-9.9,10.1-12.5,16.8l0,0.1l0,0.1c-2.3,6.4-3.4,13-3.3,19.8v68.1c-0.1,6.8,1,13.4,3.3,19.8l0,0.1l0,0.1
				c2.5,6.6,6.8,12.4,12.5,16.8c5.6,4.4,12.9,7.7,22.4,10c8.8,2.1,19.6,3.1,33,3.1c13.4,0,24.2-1,33-3.1c9.4-2.3,16.7-5.5,22.3-10
				c5.7-4.4,9.9-10.2,12.4-16.9l0-0.1l0-0.1c2.2-6.4,3.3-13,3.2-19.7v-68.1c0.1-6.7-1-13.4-3.2-19.7l0-0.1l0-0.1
				c-2.5-6.7-6.8-12.5-12.4-16.9c-5.6-4.4-12.9-7.7-22.3-10C1106.9,351.4,1095.7,350.3,1082.5,350.3L1082.5,350.3L1082.5,350.3z
				 M1074.7,407.9c1.1-0.3,3.4-0.6,7.8-0.6c4.4,0,6.7,0.3,7.8,0.6v53.2c-1,0.3-3.3,0.6-7.8,0.6c-4.5,0-6.8-0.4-7.8-0.7V407.9
				L1074.7,407.9z"/>
		</g>
	</g>
</g>
</svg>
