<?xml version="1.0" encoding="utf-8"?>
<!-- Generator: Adobe Illustrator 23.1.0, SVG Export Plug-In . SVG Version: 6.00 Build 0)  -->
<svg version="1.1" id="Layer_1" xmlns="http://www.w3.org/2000/svg" xmlns:xlink="http://www.w3.org/1999/xlink" x="0px" y="0px"
	 viewBox="0 0 1314.5 569.3" style="enable-background:new 0 0 1314.5 569.3;" xml:space="preserve">
<style type="text/css">
	.st0{fill:#AC6F5C;}
	.st1{fill:#763C8F;}
</style>
<g id="Calque_2">
	<g id="Calque_11">
		<path class="st0" d="M306.1,335.9l-17.8,16.7l-1.5,1.5l0,0c-18.2,5.2-30.5,10.6-33.2,6.6c-2.3-3.4,4-11.5,7.3-15.7
			c7-8.7,16.2-15.4,26.7-19.4c-3-1.3-5.7-3.1-8-5.5c-1.5-1.5-7.1-7.3-5.9-10.4c2-5,21-0.4,26.8,1.1l1.3,0.4c0,0,1.2,0.3,2.7,0.8v0.5
			v0.2v0.5l0.1,2c0.3,4.5,0.6,9.2,0.9,13.6C305.9,331.6,306,334,306.1,335.9z"/>
		<path class="st1" d="M372.9,547.5c-11.6,11-22.5,15.3-25.4,16.4c-11.8,4.4-24.6,5.8-37.1,3.8c-13.3-2.1-25.9-7.7-36.3-16.2
			c-1.1-0.9-2.2-1.9-3.1-2.9c-3.5-3.7-9.3-3.8-13-0.4c-0.1,0.1-0.2,0.2-0.3,0.3c-1.2,1.3-2.6,2.4-4,3.5
			c-8.7,6.3-32.5,20.8-62.4,15.5c-28.3-5.1-44.4-24.7-49.7-31.6c-12.5-16.4-18.7-36.3-21-56.1l70,7.2c0.3,0,0.7,0.1,1,0
			c5.4,0,9.8-4.5,9.7-9.9c0-5-3.8-9.1-8.7-9.7l-64.5-6.7c-4.9-0.5-8.6-4.8-8.4-9.8v-0.2c0.2-5.2,4.6-9.3,9.8-9c0.2,0,0.4,0,0.6,0
			l64.5,6.6c0.3,0,0.7,0.1,1,0c5.4,0,9.8-4.4,9.8-9.8c0-5-3.8-9.3-8.8-9.8l-62.7-6.5c-5.2-0.5-8.9-5.2-8.4-10.3
			c0.1-0.5,0.1-1,0.3-1.5l0.1-0.2c1.2-4.4,5.4-7.4,10-6.9l62.7,6.5c0.3,0,0.7,0,1,0c5.4,0,9.8-4.4,9.8-9.8c0-5-3.8-9.3-8.8-9.8
			l-64-6.6c5.5-10,11.4-17.3,18.3-26.1c3-3.8,22.6-24.8,18.2-52c-1.1-6.4-3.3-12.6-6.6-18.3c17.3,1.7,29.3,7.4,37.2,12.5
			c27.5,17.7,43,52.9,44,94.9l-9.1-1c-0.3,0-0.7,0-1,0c-5.4,0-9.8,4.4-9.8,9.8c0,5,3.8,9.3,8.8,9.8l4.3,0.4c3.5,0.4,6,3.5,5.7,7
			c0,0.1,0,0.1,0,0.2c-0.3,2-0.6,4.3-0.8,6.4c-0.5,3.4-3.5,5.8-6.9,5.4l-4.1-0.4c-0.3,0-0.7,0-1,0c-5.4,0-9.8,4.4-9.8,9.8
			c0,5,3.8,9.3,8.8,9.8h0.6c3.5,0.4,6,3.5,5.6,7c0,0.2-0.1,0.4-0.1,0.6c-0.4,1.9-0.8,3.9-1.1,6c-0.6,3.3-3.6,5.6-6.9,5.3l0,0
			c-0.3,0-0.7-0.1-1,0c-5.4,0-9.8,4.5-9.7,9.9c0,5,3.8,9.1,8.7,9.7l7,0.7c0.2,3.4,0.7,6.8,1.5,10.1c1,3.4,2.6,6.6,4.8,9.4
			c1.7,1.9,3.7,3.6,5.9,4.9c2.3,1.4,4.9,2.4,7.6,3c-1.3-5.5-2-11.2-2-16.9c0-0.5,0-1,0-1.5c0.8-38.7,32.4-69.7,71.2-69.7
			c13.2,0,28.4,4.6,30,6.6c-10.2-12.7-21.8-19-40.7-18.1c-9.9,0.5-26.2,6.9-39.3,2c-2-0.8-4-1.7-5.8-2.9c-5.6-3.7-10.1-8.9-12.8-15
			c8-4.4,29.4-10.7,33.9-31c1-4.2,1.2-8.5,0.7-12.7l20.6-19.6l-2.4-46.8c0.4,0.2,52.5,23.6,83.5,84.5l0,0c3.7,7.3,6.8,14.9,9.2,22.7
			c4.7,15.2,7.2,31.1,7.2,47C408.7,457.9,408.9,513.6,372.9,547.5z"/>
		<path class="st0" d="M248.8,127.7c0,19.4,2.8,93.2-45.8,104.3c-31.2,7.1-77.3-25.2-84.9-73.1C107.4,91.8,174.2-7.8,202.2,0.5
			C230.8,8.9,248.8,74.3,248.8,127.7z"/>
		<path class="st0" d="M279,127.7c0,19.4-2.8,93.2,45.8,104.3c31.2,7.1,77.3-25.2,85-73.1C420.4,91.8,353.6-7.8,325.6,0.5
			C297,8.9,279,74.3,279,127.7z"/>
		<path class="st0" d="M120.3,329.6c0.1,9,1,71.7-35.8,86.3c-23.7,9.4-54.6-4.6-70.1-24.1c-42-52.8,17-169.5,55.2-170.7
			C97.4,220.2,119.6,279.5,120.3,329.6z"/>
		<path class="st0" d="M407.8,329.6c-0.1,9-1,71.7,35.8,86.3c23.7,9.4,54.6-4.6,70.1-24.1c42-52.8-17-169.5-55.2-170.7
			C430.8,220.2,408.6,279.5,407.8,329.6z"/>
		<path class="st0" d="M665.9,366.3h-31c-4.8,0-7.2-2.4-7.2-7.2V229.5c0-4.8,2.4-7.2,7.2-7.2h89.2c4.8,0,7.2,2.4,7.2,7.2v23.8
			c0,4.8-2.4,7.2-7.2,7.2h-51v20.8h34.8c4.8,0,7.2,2.4,7.2,7.2v24c0,4.8-2.4,7.2-7.2,7.2h-34.8v39.4
			C673.1,363.9,670.7,366.3,665.9,366.3z"/>
		<path class="st0" d="M860.3,366.3H758.5c-4.8,0-7.2-2.4-7.2-7.2V229.5c0-4.8,2.4-7.2,7.2-7.2h31c4.8,0,7.2,2.4,7.2,7.2v99h27.4
			v-32.4c0-4.8,2.4-7.2,7.2-7.2h29c4.8,0,7.2,2.4,7.2,7.2v63C867.5,363.9,865.1,366.3,860.3,366.3z"/>
		<path class="st0" d="M1012.9,328.5c0.1,5.7-0.8,11.3-2.7,16.7c-1.9,5.1-5.2,9.6-9.6,12.9c-4.6,3.6-10.9,6.4-18.9,8.3
			c-8,1.9-18.2,2.9-30.6,2.9c-12.4,0-22.6-1-30.6-2.9c-8-1.9-14.3-4.7-18.9-8.3c-4.4-3.3-7.7-7.8-9.6-12.9c-1.9-5.4-2.8-11-2.7-16.7
			v-99c0-4.8,2.4-7.2,7.2-7.2h31.4c4.8,0,7.2,2.4,7.2,7.2v91.2c0,2.6,1.1,5,3,6.7c2,1.8,6.5,2.7,13.4,2.7c7.1,0,11.6-0.9,13.6-2.7
			c1.9-1.7,3-4.1,3-6.7v-91.2c0-4.8,2.4-7.2,7.2-7.2h30.4c4.8,0,7.2,2.4,7.2,7.2L1012.9,328.5z"/>
		<path class="st0" d="M1077.7,366.3h-31c-4.8,0-7.2-2.4-7.2-7.2V229.5c0-4.8,2.4-7.2,7.2-7.2h89.2c4.8,0,7.2,2.4,7.2,7.2v23.8
			c0,4.8-2.4,7.2-7.2,7.2h-51v20.8h34.8c4.8,0,7.2,2.4,7.2,7.2v24c0,4.8-2.4,7.2-7.2,7.2h-34.8v39.4
			C1084.9,363.9,1082.5,366.3,1077.7,366.3z"/>
		<path class="st0" d="M1201.3,366.3h-31c-4.8,0-7.2-2.4-7.2-7.2V229.5c0-4.8,2.4-7.2,7.2-7.2h89.2c4.8,0,7.2,2.4,7.2,7.2v23.8
			c0,4.8-2.4,7.2-7.2,7.2h-51v20.8h34.8c4.8,0,7.2,2.4,7.2,7.2v24c0,4.8-2.4,7.2-7.2,7.2h-34.8v39.4
			C1208.5,363.9,1206.1,366.3,1201.3,366.3z"/>
		<path class="st1" d="M665.7,566.3h-30.8c-4.8,0-7.2-2.4-7.2-7.2V429.5c0-4.8,2.4-7.2,7.2-7.2h66.6c10,0,17.9,1.4,23.6,4.2
			c5.7,2.8,9.8,6.7,12.2,11.7c2.5,5.5,3.7,11.5,3.6,17.5v9.2c0.1,4.8-0.7,9.7-2.4,14.2c-1.7,3.9-4.8,7-8.8,8.6
			c7.3,0.8,13.2,3.7,17.6,8.8c4.4,5.1,6.6,11.8,6.6,20.2v42.4c0,4.8-2.4,7.2-7.2,7.2h-31c-4.8,0-7.2-2.4-7.2-7.2v-30.6
			c0-3.1-0.6-5.3-1.7-6.6c-1.1-1.3-3.1-2-5.9-2h-28v39.2C672.9,563.9,670.5,566.3,665.7,566.3z M672.9,458.3v25.6h15
			c3.5,0,5.8-0.9,7-2.7c1.3-2,1.9-4.3,1.8-6.7v-6.8c0.1-2.4-0.5-4.7-1.8-6.7c-1.2-1.8-3.5-2.7-7-2.7L672.9,458.3z"/>
		<path class="st1" d="M817.1,559.1c0,4.8-2.4,7.2-7.2,7.2h-29.4c-4.8,0-7.2-2.4-7.2-7.2v-52.8c0.1-4.7,0.7-9.3,1.9-13.8
			c1.6-6.2,3.6-12.3,5.9-18.2l17.4-45.4c1.5-4.4,4.9-6.6,10.2-6.6h53.8c5.2,0,8.5,2.2,10,6.6l17.4,45.4c2.4,5.9,4.3,12,5.9,18.2
			c1.2,4.5,1.8,9.1,1.9,13.8v52.8c0,4.8-2.4,7.2-7.2,7.2h-30.2c-5.2,0-7.8-2.4-7.8-7.2v-28h-35.4L817.1,559.1z M828.5,464.3
			l-9.4,30.4h31.4l-9.4-30.4c-0.9-2.3-2.2-3.4-3.8-3.4h-5C830.7,460.9,829.5,462,828.5,464.3z"/>
		<path class="st1" d="M996.9,566.3h-67.4c-4.8,0-7.2-2.4-7.2-7.2V429.5c0-4.8,2.4-7.2,7.2-7.2h67.4c16.8,0,29.2,3.3,37.2,10
			c8,6.7,12,16.9,12,30.8v62.4c0,13.9-4,24.1-12,30.8C1026.1,563,1013.7,566.3,996.9,566.3z M967.7,460.5v68h23.8
			c6.3,0,9.4-3.3,9.4-9.8v-48.6c0-6.4-3.1-9.6-9.4-9.6H967.7z"/>
		<path class="st1" d="M1075.5,566.3c-4.8,0-7.2-2.4-7.2-7.2v-23.8c0-4.8,2.4-7.2,7.2-7.2h19.8v-67.2h-19.8c-4.8,0-7.2-2.4-7.2-7.2
			v-24.2c0-4.8,2.4-7.2,7.2-7.2h85.2c4.8,0,7.2,2.4,7.2,7.2v24.2c0,4.8-2.4,7.2-7.2,7.2h-19.4v67.2h19.4c4.8,0,7.2,2.4,7.2,7.2v23.8
			c0,4.8-2.4,7.2-7.2,7.2H1075.5z"/>
		<path class="st1" d="M1314.5,528.5c0.1,5.7-0.8,11.3-2.7,16.7c-1.9,5.1-5.2,9.6-9.5,12.9c-4.5,3.6-10.8,6.4-18.9,8.3
			s-18.4,2.9-30.9,2.9c-12.5,0-22.8-1-30.9-2.9c-8.1-1.9-14.4-4.7-18.9-8.3c-4.3-3.3-7.7-7.8-9.6-12.9c-1.9-5.4-2.9-11-2.8-16.7
			v-68.2c-0.1-5.7,0.9-11.3,2.8-16.7c1.9-5.1,5.3-9.6,9.6-12.9c4.5-3.6,10.8-6.4,18.9-8.4c8.1-2,18.4-3,30.9-3c12.5,0,22.8,1,30.9,3
			c8.1,2,14.4,4.8,18.9,8.4c4.3,3.3,7.6,7.8,9.5,12.9c1.9,5.4,2.8,11,2.7,16.7V528.5z M1235.7,521.3c0,2.6,1.1,5,3,6.7
			c2,1.8,6.6,2.7,13.8,2.7c7.3,0,12-0.9,13.9-2.7c1.9-1.7,3-4.2,2.9-6.7v-53.8c0.1-2.5-1-4.9-2.9-6.6c-1.9-1.7-6.6-2.6-13.9-2.6
			c-7.2,0-11.8,0.9-13.8,2.6c-2,1.6-3.1,4.1-3,6.6V521.3z"/>
	</g>
</g>
</svg>
