<?xml version="1.0" encoding="utf-8"?>
<!-- Generator: Adobe Illustrator 23.1.0, SVG Export Plug-In . SVG Version: 6.00 Build 0)  -->
<svg version="1.1" id="Layer_1" xmlns="http://www.w3.org/2000/svg" xmlns:xlink="http://www.w3.org/1999/xlink" x="0px" y="0px"
	 viewBox="0 0 727.4 767.7" style="enable-background:new 0 0 727.4 767.7;" xml:space="preserve">
<style type="text/css">
	.st0{fill:#FFFFFF;}
	.st1{opacity:0.24;}
</style>
<g id="Calque_2">
	<g id="Calque_11">
		<path class="st0" d="M405.8,435.5L388,452.2l-1.5,1.5l0,0c-18.2,5.2-30.5,10.6-33.2,6.6c-2.3-3.4,4-11.5,7.3-15.7
			c7-8.7,16.2-15.4,26.7-19.4c-3-1.3-5.7-3.1-8-5.5c-1.5-1.5-7.1-7.3-5.9-10.4c2-5,21-0.4,26.8,1.1l1.3,0.4c0,0,1.2,0.3,2.7,0.8v0.5
			v0.2v0.5l0.1,2c0.3,4.5,0.6,9.2,0.9,13.6C405.6,431.3,405.7,433.6,405.8,435.5z"/>
		<path class="st0" d="M472.6,647.1c-11.6,11-22.5,15.3-25.4,16.4c-11.8,4.4-24.6,5.8-37.1,3.8c-13.3-2.1-25.9-7.7-36.3-16.2
			c-1.1-0.9-2.2-1.9-3.1-2.9c-3.5-3.7-9.3-3.8-13-0.4c-0.1,0.1-0.2,0.2-0.3,0.3c-1.2,1.3-2.6,2.4-4,3.5
			c-8.7,6.3-32.5,20.8-62.4,15.5c-28.3-5.1-44.4-24.7-49.7-31.6c-12.5-16.4-18.7-36.3-21.1-56.1l70,7.2c0.3,0,0.7,0.1,1,0
			c5.4,0,9.8-4.5,9.7-9.9c0-5-3.8-9.1-8.7-9.7l-64.5-6.7c-4.9-0.5-8.6-4.8-8.4-9.8v-0.2c0.2-5.2,4.6-9.3,9.8-9c0.2,0,0.4,0,0.6,0
			l64.5,6.7c0.3,0,0.7,0,1,0c5.4,0,9.8-4.4,9.8-9.8c0-5-3.8-9.3-8.8-9.8l-62.7-6.5c-5.2-0.5-8.9-5.2-8.4-10.3c0.1-0.5,0.1-1,0.3-1.5
			V510c1.2-4.5,5.5-7.4,10.1-6.9l62.7,6.5c0.3,0,0.7,0,1,0c5.4,0,9.8-4.4,9.8-9.8c0-5-3.8-9.3-8.8-9.8l-64-6.6
			c5.5-10,11.4-17.3,18.3-26.1c3-3.8,22.6-24.8,18.2-52c-1.1-6.4-3.3-12.6-6.6-18.3c17.3,1.7,29.3,7.4,37.2,12.5
			c27.5,17.7,43,52.9,44,94.9l-9.1-1c-0.3,0-0.7,0-1,0c-5.4,0-9.8,4.4-9.8,9.8c0,5,3.8,9.3,8.8,9.8l4.3,0.4c3.5,0.4,6,3.5,5.6,6.9
			c0,0.1,0,0.1,0,0.2c-0.3,2-0.5,4.3-0.8,6.4c-0.5,3.4-3.5,5.8-6.9,5.4l-4-0.3c-0.3,0-0.7,0-1,0c-5.4,0-9.8,4.4-9.8,9.8
			c0,5,3.8,9.3,8.8,9.8h0.5c3.5,0.4,6,3.5,5.6,7c0,0.2-0.1,0.4-0.1,0.6c-0.4,1.9-0.8,3.9-1.1,6c-0.6,3.3-3.6,5.6-6.9,5.3l0,0
			c-0.3,0-0.7,0-1,0c-5.4,0-9.8,4.5-9.7,9.9c0,5,3.8,9.1,8.7,9.7l7,0.7c0.2,3.4,0.7,6.8,1.5,10.1c1,3.4,2.6,6.6,4.8,9.4
			c1.7,1.9,3.7,3.6,5.9,4.9c2.3,1.4,4.9,2.4,7.6,3c-1.3-5.5-2-11.2-2-16.9c0-0.5,0-1,0-1.5c0.8-38.7,32.4-69.7,71.2-69.7
			c13.2,0,28.4,4.6,30,6.6c-10.2-12.7-21.8-19-40.7-18.1c-9.9,0.5-26.2,6.9-39.3,2c-2-0.8-4-1.7-5.8-2.8c-5.6-3.7-10.1-8.9-12.8-15
			c8-4.4,29.4-10.7,33.9-31c1-4.2,1.2-8.5,0.7-12.7l20.6-19.7l-2.4-46.8c0.4,0.2,52.5,23.6,83.5,84.5l0,0l0,0
			c3.7,7.3,6.8,14.9,9.2,22.7c4.7,15.2,7.2,31.1,7.2,47C508.4,557.5,508.6,613.2,472.6,647.1z"/>
		<path class="st0" d="M348.5,227.3c0,19.4,2.8,93.2-45.8,104.3c-31.2,7.1-77.3-25.2-84.9-73.1c-10.6-67.1,56.2-166.6,84.2-158.4
			C330.5,108.5,348.5,173.9,348.5,227.3z"/>
		<path class="st0" d="M378.7,227.3c0,19.4-2.8,93.2,45.8,104.3c31.2,7.1,77.3-25.2,85-73.1c10.7-67.1-56.1-166.6-84.2-158.4
			C396.7,108.5,378.7,173.9,378.7,227.3z"/>
		<path class="st0" d="M220,429.2c0.1,9,1,71.7-35.8,86.3c-23.7,9.4-54.6-4.6-70.1-24.1c-42-52.8,17-169.5,55.2-170.7
			C197.1,319.8,219.3,379.1,220,429.2z"/>
		<path class="st0" d="M507.5,429.2c-0.1,9-1,71.7,35.8,86.3c23.7,9.4,54.6-4.6,70.1-24.1c42-52.8-17-169.5-55.2-170.7
			C530.5,319.8,508.3,379.1,507.5,429.2z"/>
		<g class="st1">
			<path class="st0" d="M635,560.1c-4.8,0-7.2-2.4-7.2-7.2v-23.8c0-4.8,2.4-7.2,7.2-7.2h19.8v-67.2H635c-4.8,0-7.2-2.4-7.2-7.2
				v-24.2c0-4.8,2.4-7.2,7.2-7.2h85.2c4.8,0,7.2,2.4,7.2,7.2v24.2c0,4.8-2.4,7.2-7.2,7.2h-19.4v67.2h19.4c4.8,0,7.2,2.4,7.2,7.2
				v23.8c0,4.8-2.4,7.2-7.2,7.2H635z"/>
		</g>
		<g class="st1">
			<path class="st0" d="M7.2,560.1c-4.8,0-7.2-2.4-7.2-7.2v-23.8c0-4.8,2.4-7.2,7.2-7.2H27v-67.2H7.2c-4.8,0-7.2-2.4-7.2-7.2v-24.2
				c0-4.8,2.4-7.2,7.2-7.2h85.2c4.8,0,7.2,2.4,7.2,7.2v24.2c0,4.8-2.4,7.2-7.2,7.2H73v67.2h19.4c4.8,0,7.2,2.4,7.2,7.2v23.8
				c0,4.8-2.4,7.2-7.2,7.2H7.2z"/>
		</g>
		<g class="st1">
			<path class="st0" d="M291.8,675.3c0-4.8,2.4-7.2,7.2-7.2h23.8c4.8,0,7.2,2.4,7.2,7.2v19.8h67.2v-19.8c0-4.8,2.4-7.2,7.2-7.2h24.2
				c4.8,0,7.2,2.4,7.2,7.2v85.2c0,4.8-2.4,7.2-7.2,7.2h-24.2c-4.8,0-7.2-2.4-7.2-7.2v-19.4H330v19.4c0,4.8-2.4,7.2-7.2,7.2H299
				c-4.8,0-7.2-2.4-7.2-7.2L291.8,675.3z"/>
		</g>
		<g class="st1">
			<path class="st0" d="M280.8,7.2c0-4.8,2.4-7.2,7.2-7.2h23.8c4.8,0,7.2,2.4,7.2,7.2V27h67.2V7.2c0-4.8,2.4-7.2,7.2-7.2h24.2
				c4.8,0,7.2,2.4,7.2,7.2v85.2c0,4.8-2.4,7.2-7.2,7.2h-24.2c-4.8,0-7.2-2.4-7.2-7.2V73H319v19.4c0,4.8-2.4,7.2-7.2,7.2H288
				c-4.8,0-7.2-2.4-7.2-7.2L280.8,7.2z"/>
		</g>
		<path class="st0" d="M627.9,97.6h-12v2h12V97.6z M603.9,97.6h-12v2h12V97.6z M579.9,97.6h-12v2h12V97.6z M555.9,97.6h-12v2h12
			V97.6z M531.9,97.6h-12v2h12V97.6z M507.9,97.6h-12v2h12V97.6z M483.9,97.6h-12v2h12V97.6z M459.9,97.6h-12v2h12V97.6z
			 M435.9,97.6h-12v2h12V97.6z M411.9,97.6h-12v2h12V97.6z M387.9,97.6h-12v2h12V97.6z M363.9,97.6h-12v2h12V97.6z M339.9,97.6h-12
			v2h12V97.6z M315.9,97.6h-12v2h12V97.6z M291.9,97.6h-12v2h12V97.6z M267.9,97.6h-12v2h12V97.6z M243.9,97.6h-12v2h12V97.6z
			 M219.9,97.6h-12v2h12V97.6z M195.9,97.6h-12v2h12V97.6z M171.9,97.6h-12v2h12V97.6z M147.9,97.6h-12v2h12V97.6z M123.9,97.6h-12
			v2h12V97.6z M99.9,97.6h-2.3v13.7h2V99.6h0.3V97.6z M99.6,123.3h-2v12h2V123.3z M99.6,147.3h-2v12h2V147.3z M99.6,171.3h-2v12h2
			V171.3z M99.6,195.3h-2v12h2V195.3z M99.6,219.3h-2v12h2V219.3z M99.6,243.3h-2v12h2V243.3z M99.6,267.3h-2v12h2V267.3z
			 M99.6,291.3h-2v12h2V291.3z M99.6,315.3h-2v12h2V315.3z M99.6,339.3h-2v12h2V339.3z M99.6,363.3h-2v12h2V363.3z M99.6,387.3h-2
			v12h2V387.3z M99.6,411.3h-2v12h2V411.3z M99.6,435.3h-2v12h2V435.3z M99.6,459.3h-2v12h2V459.3z M99.6,483.3h-2v12h2V483.3z
			 M99.6,507.3h-2v12h2V507.3z M99.6,531.3h-2v12h2V531.3z M99.6,555.3h-2v12h2V555.3z M99.6,579.3h-2v12h2V579.3z M99.6,603.3h-2
			v12h2V603.3z M99.6,627.3h-2v12h2V627.3z M99.6,651.3h-2v12h2V651.3z M118.7,668.2h-12v2h12V668.2z M142.7,668.2h-12v2h12V668.2z
			 M166.7,668.2h-12v2h12V668.2z M190.7,668.2h-12v2h12V668.2z M214.7,668.2h-12v2h12V668.2z M238.7,668.2h-12v2h12V668.2z
			 M262.7,668.2h-12v2h12V668.2z M286.7,668.2h-12v2h12V668.2z M310.7,668.2h-12v2h12V668.2z M334.7,668.2h-12v2h12V668.2z
			 M358.7,668.2h-12v2h12V668.2z M382.7,668.2h-12v2h12V668.2z M406.7,668.2h-12v2h12V668.2z M430.7,668.2h-12v2h12V668.2z
			 M454.7,668.2h-12v2h12V668.2z M478.7,668.2h-12v2h12V668.2z M502.7,668.2h-12v2h12V668.2z M526.7,668.2h-12v2h12V668.2z
			 M550.7,668.2h-12v2h12V668.2z M574.7,668.2h-12v2h12V668.2z M598.7,668.2h-12v2h12V668.2z M622.7,668.2h-12v2h12V668.2z
			 M629.9,649.4h-2v12h2V649.4z M629.9,625.4h-2v12h2V625.4z M629.9,601.4h-2v12h2V601.4z M629.9,577.4h-2v12h2V577.4z M629.9,553.4
			h-2v12h2V553.4z M629.9,529.4h-2v12h2V529.4z M629.9,505.4h-2v12h2V505.4z M629.9,481.4h-2v12h2V481.4z M629.9,457.4h-2v12h2
			V457.4z M629.9,433.4h-2v12h2V433.4z M629.9,409.4h-2v12h2V409.4z M629.9,385.4h-2v12h2V385.4z M629.9,361.4h-2v12h2V361.4z
			 M629.9,337.4h-2v12h2V337.4z M629.9,313.4h-2v12h2V313.4z M629.9,289.4h-2v12h2V289.4z M629.9,265.4h-2v12h2V265.4z M629.9,241.4
			h-2v12h2V241.4z M629.9,217.4h-2v12h2V217.4z M629.9,193.4h-2v12h2V193.4z M629.9,169.4h-2v12h2V169.4z M629.9,145.4h-2v12h2
			V145.4z M629.9,121.4h-2v12h2V121.4z M629.9,99.6h-2v9.8h2V99.6L629.9,99.6z"/>
		<path class="st0" d="M703.4,1.3h-12v2h12C703.4,3.3,703.4,1.3,703.4,1.3z M679.4,1.3h-12v2h12C679.4,3.3,679.4,1.3,679.4,1.3z
			 M655.4,1.3h-12v2h12C655.4,3.3,655.4,1.3,655.4,1.3z M631.4,1.3h-12v2h12C631.4,3.3,631.4,1.3,631.4,1.3z M607.4,1.3h-12v2h12
			C607.4,3.3,607.4,1.3,607.4,1.3z M583.4,1.3h-12v2h12C583.4,3.3,583.4,1.3,583.4,1.3z M559.4,1.3h-12v2h12
			C559.4,3.3,559.4,1.3,559.4,1.3z M535.4,1.3h-12v2h12C535.4,3.3,535.4,1.3,535.4,1.3z M511.4,1.3h-12v2h12
			C511.4,3.3,511.4,1.3,511.4,1.3z M487.4,1.3h-12v2h12C487.4,3.3,487.4,1.3,487.4,1.3z M463.4,1.3h-12v2h12
			C463.4,3.3,463.4,1.3,463.4,1.3z M439.4,1.3h-12v2h12C439.4,3.3,439.4,1.3,439.4,1.3z M415.4,1.3h-12v2h12
			C415.4,3.3,415.4,1.3,415.4,1.3z M391.4,1.3h-12v2h12C391.4,3.3,391.4,1.3,391.4,1.3z M367.4,1.3h-12v2h12
			C367.4,3.3,367.4,1.3,367.4,1.3z M343.4,1.3h-12v2h12C343.4,3.3,343.4,1.3,343.4,1.3z M319.4,1.3h-12v2h12
			C319.4,3.3,319.4,1.3,319.4,1.3z M295.4,1.3h-12v2h12C295.4,3.3,295.4,1.3,295.4,1.3z M271.4,1.3h-12v2h12
			C271.4,3.3,271.4,1.3,271.4,1.3z M247.4,1.3h-12v2h12C247.4,3.3,247.4,1.3,247.4,1.3z M223.4,1.3h-12v2h12
			C223.4,3.3,223.4,1.3,223.4,1.3z M199.4,1.3h-12v2h12C199.4,3.3,199.4,1.3,199.4,1.3z M175.4,1.3h-12v2h12
			C175.4,3.3,175.4,1.3,175.4,1.3z M151.4,1.3h-12v2h12C151.4,3.3,151.4,1.3,151.4,1.3z M127.4,1.3h-12v2h12
			C127.4,3.3,127.4,1.3,127.4,1.3z M103.4,1.3h-12v2h12C103.4,3.3,103.4,1.3,103.4,1.3z M79.4,1.3h-12v2h12
			C79.4,3.3,79.4,1.3,79.4,1.3z M55.4,1.3h-12v2h12C55.4,3.3,55.4,1.3,55.4,1.3z M31.4,1.3h-12v2h12C31.4,3.3,31.4,1.3,31.4,1.3z
			 M7.4,1.3H0v2l0,0v2.6h2V3.3h5.4C7.4,3.3,7.4,1.3,7.4,1.3z M2,17.9H0v12h2V17.9z M2,41.9H0v12h2V41.9z M2,65.9H0v12h2V65.9z
			 M2,89.9H0v12h2V89.9z M2,113.9H0v12h2V113.9z M2,137.9H0v12h2V137.9z M2,161.9H0v12h2V161.9z M2,185.9H0v12h2V185.9z M2,209.9H0
			v12h2V209.9z M2,233.9H0v12h2V233.9z M2,257.9H0v12h2V257.9z M2,281.9H0v12h2V281.9z M2,305.9H0v12h2V305.9z M2,329.9H0v12h2
			V329.9z M2,353.9H0v12h2V353.9z M2,377.9H0v12h2V377.9z M2,401.9H0v12h2V401.9z M2,425.9H0v12h2V425.9z M2,449.9H0v12h2V449.9z
			 M2,473.9H0v12h2V473.9z M2,497.9H0v12h2V497.9z M2,521.9H0v12h2V521.9z M2,545.9H0v12h2V545.9z M2,569.9H0v12h2V569.9z M2,593.9
			H0v12h2V593.9z M2,617.9H0v12h2V617.9z M2,641.9H0v12h2V641.9z M2,665.9H0v12h2V665.9z M2,689.9H0v12h2V689.9z M2,713.9H0v12h2
			V713.9z M2,737.9H0v12h2V737.9z M2,761.9H0v5.8h6.2v-2H2V761.9z M30.2,765.7h-12v2h12V765.7z M54.2,765.7h-12v2h12V765.7z
			 M78.2,765.7h-12v2h12V765.7z M102.2,765.7h-12v2h12V765.7z M126.2,765.7h-12v2h12V765.7z M150.2,765.7h-12v2h12V765.7z
			 M174.2,765.7h-12v2h12V765.7z M198.2,765.7h-12v2h12V765.7z M222.2,765.7h-12v2h12V765.7z M246.2,765.7h-12v2h12V765.7z
			 M270.2,765.7h-12v2h12V765.7z M294.2,765.7h-12v2h12V765.7z M318.2,765.7h-12v2h12V765.7z M342.2,765.7h-12v2h12V765.7z
			 M366.2,765.7h-12v2h12V765.7z M390.2,765.7h-12v2h12V765.7z M414.2,765.7h-12v2h12V765.7z M438.2,765.7h-12v2h12V765.7z
			 M462.2,765.7h-12v2h12V765.7z M486.2,765.7h-12v2h12V765.7z M510.2,765.7h-12v2h12V765.7z M534.2,765.7h-12v2h12V765.7z
			 M558.2,765.7h-12v2h12V765.7z M582.2,765.7h-12v2h12V765.7z M606.2,765.7h-12v2h12V765.7z M630.2,765.7h-12v2h12V765.7z
			 M654.2,765.7h-12v2h12V765.7z M678.2,765.7h-12v2h12V765.7z M702.2,765.7h-12v2h12V765.7z M726.2,765.7h-12v2h12V765.7z
			 M727.4,744.9h-2v12h2V744.9z M727.4,720.9h-2v12h2V720.9z M727.4,696.9h-2v12h2V696.9z M727.4,672.9h-2v12h2V672.9z M727.4,648.9
			h-2v12h2V648.9z M727.4,624.9h-2v12h2V624.9z M727.4,600.9h-2v12h2V600.9z M727.4,576.9h-2v12h2V576.9z M727.4,552.9h-2v12h2
			V552.9z M727.4,528.9h-2v12h2V528.9z M727.4,504.9h-2v12h2V504.9z M727.4,480.9h-2v12h2V480.9z M727.4,456.9h-2v12h2V456.9z
			 M727.4,432.9h-2v12h2V432.9z M727.4,408.9h-2v12h2V408.9z M727.4,384.9h-2v12h2V384.9z M727.4,360.9h-2v12h2V360.9z M727.4,336.9
			h-2v12h2V336.9z M727.4,312.9h-2v12h2V312.9z M727.4,288.9h-2v12h2V288.9z M727.4,264.9h-2v12h2V264.9z M727.4,240.9h-2v12h2
			V240.9z M727.4,216.9h-2v12h2V216.9z M727.4,192.9h-2v12h2V192.9z M727.4,168.9h-2v12h2V168.9z M727.4,144.9h-2v12h2V144.9z
			 M727.4,120.9h-2v12h2V120.9z M727.4,96.9h-2v12h2V96.9z M727.4,72.9h-2v12h2V72.9z M727.4,48.9h-2v12h2V48.9z M727.4,24.9h-2v12
			h2V24.9z M727.4,1.3h-12v2h10v9.6h2V1.3L727.4,1.3z"/>
	</g>
</g>
</svg>
