<?xml version="1.0" encoding="utf-8"?>
<!-- Generator: Adobe Illustrator 23.1.0, SVG Export Plug-In . SVG Version: 6.00 Build 0)  -->
<svg version="1.1" id="Layer_1" xmlns="http://www.w3.org/2000/svg" xmlns:xlink="http://www.w3.org/1999/xlink" x="0px" y="0px"
	 viewBox="0 0 1517.9 770.4" style="enable-background:new 0 0 1517.9 770.4;" xml:space="preserve">
<style type="text/css">
	.st0{opacity:0.24;}
</style>
<g id="Calque_2">
	<g id="Calque_11">
		<path d="M407.8,436.2L390,452.9l-1.5,1.5l0,0c-18.2,5.3-30.5,10.6-33.2,6.6c-2.3-3.4,4-11.5,7.3-15.7c7-8.7,16.2-15.4,26.6-19.4
			c-3-1.3-5.7-3.1-8-5.5c-1.5-1.5-7.1-7.3-5.9-10.4c2-5,21-0.4,26.8,1.1l1.4,0.4c0,0,1.1,0.3,2.7,0.8v0.5v0.2c0,0.2,0,0.3,0,0.5
			l0.1,2c0.3,4.5,0.6,9.2,0.9,13.6C407.6,431.9,407.7,434.3,407.8,436.2z"/>
		<path d="M474.6,647.8c-11.6,11-22.5,15.3-25.4,16.4c-11.8,4.4-24.6,5.7-37.1,3.8c-13.3-2.1-25.9-7.7-36.3-16.2
			c-1.1-0.9-2.2-1.9-3.1-2.9c-3.5-3.7-9.3-3.8-13-0.4c-0.1,0.1-0.2,0.2-0.3,0.3c-1.2,1.3-2.6,2.4-4,3.5
			c-8.7,6.3-32.5,20.8-62.4,15.5c-28.3-5.1-44.4-24.7-49.7-31.6c-12.5-16.4-18.7-36.3-21.1-56.1l70,7.2c0.3,0,0.7,0,1,0
			c5.4,0,9.8-4.5,9.7-9.9c0-5-3.8-9.1-8.7-9.7l-64.5-6.7c-4.9-0.5-8.6-4.8-8.4-9.8V551c0.2-5.2,4.6-9.3,9.9-9c0.2,0,0.4,0,0.6,0
			l64.5,6.7c0.3,0,0.7,0.1,1,0c5.4,0,9.8-4.4,9.8-9.8c0-5-3.8-9.3-8.8-9.8l-62.7-6.5c-5.2-0.5-9-5.2-8.4-10.4c0.1-0.5,0.1-1,0.3-1.5
			v-0.2c1.2-4.5,5.5-7.4,10.1-6.9l62.7,6.5c0.3,0,0.7,0,1,0c5.4,0,9.8-4.4,9.8-9.8c0-5-3.8-9.3-8.8-9.8l-64-6.6
			c5.5-10,11.4-17.3,18.3-26.1c3-3.8,22.6-24.8,18.2-52c-1.1-6.4-3.3-12.6-6.6-18.3c17.3,1.7,29.3,7.4,37.2,12.5
			c27.5,17.7,43,52.9,44,94.9l-9.1-1c-0.3,0-0.7,0-1,0c-5.4,0-9.8,4.4-9.8,9.8c0,5,3.8,9.3,8.8,9.8l4.3,0.4c3.5,0.4,6,3.5,5.7,6.9
			c0,0.1,0,0.1,0,0.2c-0.3,2-0.5,4.3-0.8,6.4c-0.5,3.4-3.5,5.8-6.9,5.4l-4.1-0.4c-0.3,0-0.7,0-1,0c-5.4,0-9.8,4.4-9.8,9.8
			c0,5,3.8,9.3,8.8,9.8l0.5,0.1c3.5,0.4,6,3.5,5.6,7c0,0.2-0.1,0.4-0.1,0.6c-0.4,1.9-0.8,3.9-1.1,6c-0.6,3.3-3.6,5.6-6.9,5.3l0,0
			c-0.3,0-0.7,0-1,0c-5.4,0-9.8,4.5-9.7,9.9c0,5,3.8,9.1,8.7,9.7l7,0.7c0.2,3.4,0.7,6.8,1.5,10.1c1,3.4,2.6,6.6,4.8,9.4
			c1.7,1.9,3.7,3.6,5.9,4.9c2.3,1.4,4.9,2.4,7.6,3c-1.3-5.5-2-11.2-2-16.9c0-0.5,0-1,0-1.5c0.8-38.7,32.4-69.7,71.2-69.7
			c13.2,0,28.4,4.6,30,6.6c-10.2-12.7-21.8-19-40.7-18.1c-9.9,0.5-26.2,6.9-39.3,2c-2-0.8-4-1.7-5.8-2.8c-5.6-3.6-10.1-8.9-12.8-15
			c8-4.4,29.4-10.7,33.9-31c1-4.2,1.2-8.5,0.7-12.7l20.6-19.7l-2.4-46.8c0.4,0.2,52.5,23.6,83.5,84.5l0,0c3.7,7.3,6.8,14.9,9.2,22.7
			c4.7,15.2,7.2,31.1,7.2,47C510.4,558.2,510.6,613.9,474.6,647.8z"/>
		<path d="M350.5,228c0,19.4,2.8,93.2-45.8,104.3c-31.2,7.1-77.3-25.2-84.9-73.1C209.2,192.1,276,92.6,304,100.8
			C332.5,109.2,350.5,174.5,350.5,228z"/>
		<path d="M380.7,228c0,19.4-2.8,93.2,45.8,104.3c31.2,7.1,77.3-25.2,85-73.1c10.6-67.1-56.2-166.6-84.2-158.4
			C398.7,109.2,380.7,174.5,380.7,228z"/>
		<path d="M222,429.9c0.1,9,1,71.7-35.8,86.3c-23.7,9.4-54.6-4.6-70.1-24.1c-41.9-52.8,16.9-169.5,55.2-170.7
			C199.1,320.5,221.3,379.8,222,429.9z"/>
		<path d="M509.5,429.9c-0.1,9-1,71.7,35.8,86.3c23.7,9.4,54.6-4.6,70.1-24.1c41.9-52.8-17-169.5-55.2-170.7
			C532.5,320.5,510.3,379.8,509.5,429.9z"/>
		<path d="M767.6,466.6h-31c-4.8,0-7.2-2.4-7.2-7.2V329.8c0-4.8,2.4-7.2,7.2-7.2h89.2c4.8,0,7.2,2.4,7.2,7.2v23.8
			c0,4.8-2.4,7.2-7.2,7.2h-51v20.8h34.8c4.8,0,7.2,2.4,7.2,7.2v24c0,4.8-2.4,7.2-7.2,7.2h-34.8v39.4
			C774.8,464.2,772.4,466.6,767.6,466.6z"/>
		<path d="M962,466.6H860.2c-4.8,0-7.2-2.4-7.2-7.2V329.8c0-4.8,2.4-7.2,7.2-7.2h31c4.8,0,7.2,2.4,7.2,7.2v99h27.4v-32.4
			c0-4.8,2.4-7.2,7.2-7.2h29c4.8,0,7.2,2.4,7.2,7.2v63C969.2,464.2,966.8,466.6,962,466.6z"/>
		<path d="M1114.6,428.8c0.1,5.7-0.8,11.3-2.7,16.7c-1.9,5.1-5.2,9.6-9.6,12.9c-4.6,3.6-10.9,6.4-18.9,8.3s-18.2,2.9-30.6,2.9
			s-22.6-1-30.6-2.9s-14.3-4.7-18.9-8.3c-4.4-3.3-7.7-7.8-9.6-12.9c-1.9-5.4-2.8-11-2.7-16.7v-99c0-4.8,2.4-7.2,7.2-7.2h31.4
			c4.8,0,7.2,2.4,7.2,7.2V421c0,2.6,1.1,5,3,6.7c2,1.8,6.5,2.7,13.4,2.7c7.1,0,11.6-0.9,13.6-2.7c1.9-1.7,3-4.1,3-6.7v-91.2
			c0-4.8,2.4-7.2,7.2-7.2h30.4c4.8,0,7.2,2.4,7.2,7.2V428.8z"/>
		<path d="M1179.4,466.6h-31c-4.8,0-7.2-2.4-7.2-7.2V329.8c0-4.8,2.4-7.2,7.2-7.2h89.2c4.8,0,7.2,2.4,7.2,7.2v23.8
			c0,4.8-2.4,7.2-7.2,7.2h-51v20.8h34.8c4.8,0,7.2,2.4,7.2,7.2v24c0,4.8-2.4,7.2-7.2,7.2h-34.8v39.4
			C1186.6,464.2,1184.2,466.6,1179.4,466.6z"/>
		<path d="M1303,466.6h-31c-4.8,0-7.2-2.4-7.2-7.2V329.8c0-4.8,2.4-7.2,7.2-7.2h89.2c4.8,0,7.2,2.4,7.2,7.2v23.8
			c0,4.8-2.4,7.2-7.2,7.2h-51v20.8h34.8c4.8,0,7.2,2.4,7.2,7.2v24c0,4.8-2.4,7.2-7.2,7.2h-34.8v39.4
			C1310.2,464.2,1307.8,466.6,1303,466.6z"/>
		<path d="M767.4,666.6h-30.8c-4.8,0-7.2-2.4-7.2-7.2V529.8c0-4.8,2.4-7.2,7.2-7.2h66.6c10,0,17.9,1.4,23.6,4.2
			c5.7,2.8,9.8,6.7,12.2,11.7c2.5,5.5,3.7,11.5,3.6,17.5v9.2c0.1,4.8-0.7,9.7-2.4,14.2c-1.7,3.9-4.8,7-8.8,8.6
			c7.3,0.8,13.2,3.7,17.6,8.8c4.4,5.1,6.6,11.8,6.6,20.2v42.4c0,4.8-2.4,7.2-7.2,7.2h-31c-4.8,0-7.2-2.4-7.2-7.2v-30.6
			c0-3.1-0.6-5.3-1.7-6.6c-1.1-1.3-3.1-2-5.9-2h-28v39.2C774.6,664.2,772.2,666.6,767.4,666.6z M774.6,558.6v25.6h15
			c3.5,0,5.8-0.9,7-2.7c1.3-2,1.9-4.3,1.8-6.7V568c0.1-2.4-0.5-4.7-1.8-6.7c-1.2-1.8-3.5-2.7-7-2.7H774.6z"/>
		<path d="M918.8,659.4c0,4.8-2.4,7.2-7.2,7.2h-29.4c-4.8,0-7.2-2.4-7.2-7.2v-52.8c0.1-4.7,0.7-9.3,1.9-13.8
			c1.6-6.2,3.6-12.3,5.9-18.2l17.4-45.4c1.5-4.4,4.9-6.6,10.2-6.6h53.8c5.2,0,8.5,2.2,10,6.6l17.4,45.4c2.3,5.9,4.3,12,5.9,18.2
			c1.2,4.5,1.8,9.1,1.9,13.8v52.8c0,4.8-2.4,7.2-7.2,7.2H962c-5.2,0-7.8-2.4-7.8-7.2v-28h-35.4V659.4z M930.2,564.6l-9.4,30.4h31.4
			l-9.4-30.4c-0.9-2.3-2.2-3.4-3.8-3.4h-5C932.4,561.2,931.2,562.3,930.2,564.6L930.2,564.6z"/>
		<path d="M1098.6,666.6h-67.4c-4.8,0-7.2-2.4-7.2-7.2V529.8c0-4.8,2.4-7.2,7.2-7.2h67.4c16.8,0,29.2,3.3,37.2,10s12,16.9,12,30.8
			v62.4c0,13.9-4,24.1-12,30.8S1115.4,666.6,1098.6,666.6z M1069.4,560.8v68h23.8c6.3,0,9.4-3.3,9.4-9.8v-48.6
			c0-6.4-3.1-9.6-9.4-9.6L1069.4,560.8z"/>
		<path d="M1177.2,666.6c-4.8,0-7.2-2.4-7.2-7.2v-23.8c0-4.8,2.4-7.2,7.2-7.2h19.8v-67.2h-19.8c-4.8,0-7.2-2.4-7.2-7.2v-24.2
			c0-4.8,2.4-7.2,7.2-7.2h85.2c4.8,0,7.2,2.4,7.2,7.2V554c0,4.8-2.4,7.2-7.2,7.2H1243v67.2h19.4c4.8,0,7.2,2.4,7.2,7.2v23.8
			c0,4.8-2.4,7.2-7.2,7.2L1177.2,666.6z"/>
		<path d="M1416.2,628.8c0.1,5.7-0.8,11.3-2.7,16.7c-1.9,5.1-5.2,9.6-9.5,12.9c-4.5,3.6-10.8,6.4-18.9,8.3
			c-8.1,1.9-18.4,2.9-30.9,2.9s-22.8-1-30.9-2.9s-14.4-4.7-18.9-8.3c-4.3-3.3-7.7-7.8-9.6-12.9c-1.9-5.4-2.9-11-2.8-16.7v-68.2
			c-0.1-5.7,0.9-11.3,2.8-16.7c1.9-5.1,5.3-9.6,9.6-12.9c4.5-3.6,10.8-6.4,18.9-8.4s18.4-3,30.9-3s22.8,1,30.9,3s14.4,4.8,18.9,8.4
			c4.3,3.3,7.6,7.8,9.5,12.9c1.9,5.4,2.8,11,2.7,16.7V628.8z M1337.4,621.6c0,2.6,1.1,5,3,6.7c2,1.8,6.6,2.7,13.8,2.7
			c7.3,0,12-0.9,13.9-2.7c1.9-1.7,3-4.2,2.9-6.7v-53.8c0.1-2.5-1-4.9-2.9-6.6c-1.9-1.7-6.6-2.6-13.9-2.6c-7.2,0-11.8,0.9-13.8,2.6
			c-2,1.6-3.1,4.1-3,6.6V621.6z"/>
		<g class="st0">
			<path d="M637,560.7c-4.8,0-7.2-2.4-7.2-7.2v-23.8c0-4.8,2.4-7.2,7.2-7.2h19.8v-67.2H637c-4.8,0-7.2-2.4-7.2-7.2v-24.2
				c0-4.8,2.4-7.2,7.2-7.2h85.2c4.8,0,7.2,2.4,7.2,7.2v24.2c0,4.8-2.4,7.2-7.2,7.2h-19.4v67.2h19.4c4.8,0,7.2,2.4,7.2,7.2v23.8
				c0,4.8-2.4,7.2-7.2,7.2H637z"/>
		</g>
		<g class="st0">
			<path d="M9.2,560.7c-4.8,0-7.2-2.4-7.2-7.2v-23.8c0-4.8,2.4-7.2,7.2-7.2H29v-67.2H9.2c-4.8,0-7.2-2.4-7.2-7.2v-24.2
				c0-4.8,2.4-7.2,7.2-7.2h85.2c4.8,0,7.2,2.4,7.2,7.2v24.2c0,4.8-2.4,7.2-7.2,7.2H75v67.2h19.4c4.8,0,7.2,2.4,7.2,7.2v23.8
				c0,4.8-2.4,7.2-7.2,7.2H9.2z"/>
		</g>
		<g class="st0">
			<path d="M293.8,676c0-4.8,2.4-7.2,7.2-7.2h23.8c4.8,0,7.2,2.4,7.2,7.2v19.8h67.2V676c0-4.8,2.4-7.2,7.2-7.2h24.2
				c4.8,0,7.2,2.4,7.2,7.2v85.2c0,4.8-2.4,7.2-7.2,7.2h-24.2c-4.8,0-7.2-2.4-7.2-7.2v-19.5H332v19.4c0,4.8-2.4,7.2-7.2,7.2H301
				c-4.8,0-7.2-2.4-7.2-7.2V676z"/>
		</g>
		<g class="st0">
			<path d="M1231.2,676.8c0-4.8,2.4-7.2,7.2-7.2h23.8c4.8,0,7.2,2.4,7.2,7.2v19.8h67.2v-19.8c0-4.8,2.4-7.2,7.2-7.2h24.2
				c4.8,0,7.2,2.4,7.2,7.2V762c0,4.8-2.4,7.2-7.2,7.2h-24.2c-4.8,0-7.2-2.4-7.2-7.2v-19.4h-67.2V762c0,4.8-2.4,7.2-7.2,7.2h-23.8
				c-4.8,0-7.2-2.4-7.2-7.2V676.8z"/>
		</g>
		<g class="st0">
			<path d="M729.4,230.3c0-4.8,2.4-7.2,7.2-7.2h23.8c4.8,0,7.2,2.4,7.2,7.2v19.8h67.2v-19.8c0-4.8,2.4-7.2,7.2-7.2h24.2
				c4.8,0,7.2,2.4,7.2,7.2v85.2c0,4.8-2.4,7.2-7.2,7.2H842c-4.8,0-7.2-2.4-7.2-7.2v-19.4h-67.2v19.4c0,4.8-2.4,7.2-7.2,7.2h-23.8
				c-4.8,0-7.2-2.4-7.2-7.2L729.4,230.3z"/>
		</g>
		<g class="st0">
			<path d="M282.8,7.9c0-4.8,2.4-7.2,7.2-7.2h23.8c4.8,0,7.2,2.4,7.2,7.2v19.8h67.2V7.9c0-4.8,2.4-7.2,7.2-7.2h24.2
				c4.8,0,7.2,2.4,7.2,7.2v85.2c0,4.8-2.4,7.2-7.2,7.2h-24.2c-4.8,0-7.2-2.4-7.2-7.2V73.7H321v19.4c0,4.8-2.4,7.2-7.2,7.2H290
				c-4.8,0-7.2-2.4-7.2-7.2V7.9z"/>
		</g>
		<g class="st0">
			<path d="M1423.5,560.7c-4.8,0-7.2-2.4-7.2-7.2v-23.8c0-4.8,2.4-7.2,7.2-7.2h19.8v-67.2h-19.8c-4.8,0-7.2-2.4-7.2-7.2v-24.2
				c0-4.8,2.4-7.2,7.2-7.2h85.2c4.8,0,7.2,2.4,7.2,7.2v24.2c0,4.8-2.4,7.2-7.2,7.2h-19.4v67.2h19.4c4.8,0,7.2,2.4,7.2,7.2v23.8
				c0,4.8-2.4,7.2-7.2,7.2H1423.5z"/>
		</g>
		<path d="M629.9,98.3h-12v2h12V98.3z M605.9,98.3h-12v2h12V98.3z M581.9,98.3h-12v2h12V98.3z M557.9,98.3h-12v2h12V98.3z
			 M533.9,98.3h-12v2h12V98.3z M509.9,98.3h-12v2h12V98.3z M485.9,98.3h-12v2h12V98.3z M461.9,98.3h-12v2h12V98.3z M437.9,98.3h-12
			v2h12V98.3z M413.9,98.3h-12v2h12V98.3z M389.9,98.3h-12v2h12V98.3z M365.9,98.3h-12v2h12V98.3z M341.9,98.3h-12v2h12V98.3z
			 M317.9,98.3h-12v2h12V98.3z M293.9,98.3h-12v2h12V98.3z M269.9,98.3h-12v2h12V98.3z M245.9,98.3h-12v2h12V98.3z M221.9,98.3h-12
			v2h12V98.3z M197.9,98.3h-12v2h12V98.3z M173.9,98.3h-12v2h12V98.3z M149.9,98.3h-12v2h12V98.3z M125.9,98.3h-12v2h12V98.3z
			 M101.9,98.3h-2.3V112h2v-11.7h0.3V98.3z M101.6,124h-2v12h2V124z M101.6,148h-2v12h2V148z M101.6,172h-2v12h2V172z M101.6,196h-2
			v12h2V196z M101.6,220h-2v12h2V220z M101.6,244h-2v12h2V244z M101.6,268h-2v12h2V268z M101.6,292h-2v12h2V292z M101.6,316h-2v12h2
			V316z M101.6,340h-2v12h2V340z M101.6,364h-2v12h2V364z M101.6,388h-2v12h2V388z M101.6,412h-2v12h2V412z M101.6,436h-2v12h2V436z
			 M101.6,460h-2v12h2V460z M101.6,484h-2v12h2V484z M101.6,508h-2v12h2V508z M101.6,532h-2v12h2V532z M101.6,556h-2v12h2V556z
			 M101.6,580h-2v12h2V580z M101.6,604h-2v12h2V604z M101.6,628h-2v12h2V628z M101.6,652h-2v12h2V652z M120.7,668.9h-12v2h12V668.9z
			 M144.7,668.9h-12v2h12V668.9z M168.7,668.9h-12v2h12V668.9z M192.7,668.9h-12v2h12V668.9z M216.7,668.9h-12v2h12V668.9z
			 M240.7,668.9h-12v2h12V668.9z M264.7,668.9h-12v2h12V668.9z M288.7,668.9h-12v2h12V668.9z M312.7,668.9h-12v2h12V668.9z
			 M336.7,668.9h-12v2h12V668.9z M360.7,668.9h-12v2h12V668.9z M384.7,668.9h-12v2h12V668.9z M408.7,668.9h-12v2h12V668.9z
			 M432.7,668.9h-12v2h12V668.9z M456.7,668.9h-12v2h12V668.9z M480.7,668.9h-12v2h12V668.9z M504.7,668.9h-12v2h12V668.9z
			 M528.7,668.9h-12v2h12V668.9z M552.7,668.9h-12v2h12V668.9z M576.7,668.9h-12v2h12V668.9z M600.7,668.9h-12v2h12V668.9z
			 M624.7,668.9h-12v2h12V668.9z M631.9,650.1h-2v12h2V650.1z M631.9,626.1h-2v12h2V626.1z M631.9,602.1h-2v12h2V602.1z
			 M631.9,578.1h-2v12h2V578.1z M631.9,554.1h-2v12h2V554.1z M631.9,530.1h-2v12h2V530.1z M631.9,506.1h-2v12h2V506.1z M631.9,482.1
			h-2v12h2V482.1z M631.9,458.1h-2v12h2V458.1z M631.9,434.1h-2v12h2V434.1z M631.9,410.1h-2v12h2V410.1z M631.9,386.1h-2v12h2
			V386.1z M631.9,362.1h-2v12h2V362.1z M631.9,338.1h-2v12h2V338.1z M631.9,314.1h-2v12h2V314.1z M631.9,290.1h-2v12h2V290.1z
			 M631.9,266.1h-2v12h2V266.1z M631.9,242.1h-2v12h2V242.1z M631.9,218.1h-2v12h2V218.1z M631.9,194.1h-2v12h2V194.1z M631.9,170.1
			h-2v12h2V170.1z M631.9,146.1h-2v12h2V146.1z M631.9,122.1h-2v12h2V122.1z M631.9,100.3h-2v9.8h2V100.3z"/>
		<path d="M729.4,0h-12v2h12V0z M705.4,0h-12v2h12V0z M681.4,0h-12v2h12V0z M657.4,0h-12v2h12V0z M633.4,0h-12v2h12V0z M609.4,0h-12
			v2h12V0z M585.4,0h-12v2h12V0z M561.4,0h-12v2h12V0z M537.4,0h-12v2h12V0z M513.4,0h-12v2h12V0z M489.4,0h-12v2h12V0z M465.4,0
			h-12v2h12V0z M441.4,0h-12v2h12V0z M417.4,0h-12v2h12V0z M393.4,0h-12v2h12V0z M369.4,0h-12v2h12V0z M345.4,0h-12v2h12V0z
			 M321.4,0h-12v2h12V0z M297.4,0h-12v2h12V0z M273.4,0h-12v2h12V0z M249.4,0h-12v2h12V0z M225.4,0h-12v2h12V0z M201.4,0h-12v2h12V0
			z M177.4,0h-12v2h12V0z M153.4,0h-12v2h12V0z M129.4,0h-12v2h12V0z M105.4,0h-12v2h12V0z M81.4,0h-12v2h12V0z M57.4,0h-12v2h12V0z
			 M33.4,0h-12v2h12V0z M9.4,0H0v6.6h2V2h7.4V0z M2,18.6H0v12h2V18.6z M2,42.6H0v12h2V42.6z M2,66.6H0v12h2V66.6z M2,90.6H0v12h2
			V90.6z M2,114.6H0v12h2V114.6z M2,138.6H0v12h2V138.6z M2,162.6H0v12h2V162.6z M2,186.6H0v12h2V186.6z M2,210.6H0v12h2V210.6z
			 M2,234.6H0v12h2V234.6z M2,258.6H0v12h2V258.6z M2,282.6H0v12h2V282.6z M2,306.6H0v12h2V306.6z M2,330.6H0v12h2V330.6z M2,354.6
			H0v12h2V354.6z M2,378.6H0v12h2V378.6z M2,402.6H0v12h2V402.6z M2,426.6H0v12h2V426.6z M2,450.6H0v12h2V450.6z M2,474.6H0v12h2
			V474.6z M2,498.6H0v12h2V498.6z M2,522.6H0v12h2V522.6z M2,546.6H0v12h2V546.6z M2,570.6H0v12h2V570.6z M2,594.6H0v12h2V594.6z
			 M2,618.6H0v12h2V618.6z M2,642.6H0v12h2V642.6z M2,666.6H0v12h2V666.6z M2,690.6H0v12h2V690.6z M2,714.6H0v12h2V714.6z M2,738.6
			H0v12h2V738.6z M2,762.6H0v7.8h8.2v-2H2V762.6z M32.2,768.4h-12v2h12V768.4z M56.2,768.4h-12v2h12V768.4z M80.2,768.4h-12v2h12
			V768.4z M104.2,768.4h-12v2h12V768.4z M128.2,768.4h-12v2h12V768.4z M152.2,768.4h-12v2h12V768.4z M176.2,768.4h-12v2h12V768.4z
			 M200.2,768.4h-12v2h12V768.4z M224.2,768.4h-12v2h12V768.4z M248.2,768.4h-12v2h12V768.4z M272.2,768.4h-12v2h12V768.4z
			 M296.2,768.4h-12v2h12V768.4z M320.2,768.4h-12v2h12V768.4z M344.2,768.4h-12v2h12V768.4z M368.2,768.4h-12v2h12V768.4z
			 M392.2,768.4h-12v2h12V768.4z M416.2,768.4h-12v2h12V768.4z M440.2,768.4h-12v2h12V768.4z M464.2,768.4h-12v2h12V768.4z
			 M488.2,768.4h-12v2h12V768.4z M512.2,768.4h-12v2h12V768.4z M536.2,768.4h-12v2h12V768.4z M560.2,768.4h-12v2h12V768.4z
			 M584.2,768.4h-12v2h12V768.4z M608.2,768.4h-12v2h12V768.4z M632.2,768.4h-12v2h12V768.4z M656.2,768.4h-12v2h12V768.4z
			 M680.2,768.4h-12v2h12V768.4z M704.2,768.4h-12v2h12V768.4z M728.2,768.4h-12v2h12V768.4z M752.2,768.4h-12v2h12V768.4z
			 M776.2,768.4h-12v2h12V768.4z M800.2,768.4h-12v2h12V768.4z M824.2,768.4h-12v2h12V768.4z M848.2,768.4h-12v2h12V768.4z
			 M872.2,768.4h-12v2h12V768.4z M896.2,768.4h-12v2h12V768.4z M920.2,768.4h-12v2h12V768.4z M944.2,768.4h-12v2h12V768.4z
			 M968.2,768.4h-12v2h12V768.4z M992.2,768.4h-12v2h12V768.4z M1016.2,768.4h-12v2h12V768.4z M1040.2,768.4h-12v2h12V768.4z
			 M1064.2,768.4h-12v2h12V768.4z M1088.2,768.4h-12v2h12V768.4z M1112.2,768.4h-12v2h12V768.4z M1136.2,768.4h-12v2h12V768.4z
			 M1160.2,768.4h-12v2h12V768.4z M1184.2,768.4h-12v2h12V768.4z M1208.2,768.4h-12v2h12V768.4z M1232.2,768.4h-12v2h12V768.4z
			 M1256.2,768.4h-12v2h12V768.4z M1280.2,768.4h-12v2h12V768.4z M1304.2,768.4h-12v2h12V768.4z M1328.2,768.4h-12v2h12V768.4z
			 M1352.2,768.4h-12v2h12V768.4z M1376.2,768.4h-12v2h12V768.4z M1400.2,768.4h-12v2h12V768.4z M1424.2,768.4h-12v2h12V768.4z
			 M1448.2,768.4h-12v2h12V768.4z M1472.2,768.4h-12v2h12V768.4z M1496.2,768.4h-12v2h12V768.4z M1517.9,764h-2v4.3h-7.7v2h9.7V764z
			 M1517.9,740h-2v12h2V740z M1517.9,716h-2v12h2V716z M1517.9,692h-2v12h2V692z M1517.9,668h-2v12h2V668z M1517.9,644h-2v12h2V644z
			 M1517.9,620h-2v12h2V620z M1517.9,596h-2v12h2V596z M1517.9,572h-2v12h2V572z M1517.9,548h-2v12h2V548z M1517.9,524h-2v12h2V524z
			 M1517.9,500h-2v12h2V500z M1517.9,476h-2v12h2V476z M1517.9,452h-2v12h2V452z M1517.9,428h-2v12h2V428z M1517.9,404h-2v12h2V404z
			 M1517.9,380h-2v12h2V380z M1517.9,356h-2v12h2V356z M1517.9,332h-2v12h2V332z M1517.9,308h-2v12h2V308z M1517.9,284h-2v12h2V284z
			 M1517.9,260h-2v12h2V260z M1517.9,236h-2v12h2V236z M1517.9,220.8h-12.8v2h10.8v1.2h2V220.8z M1493.1,220.8h-12v2h12V220.8z
			 M1469.1,220.8h-12v2h12V220.8z M1445.1,220.8h-12v2h12V220.8z M1421.1,220.8h-12v2h12V220.8z M1397.1,220.8h-12v2h12V220.8z
			 M1373.1,220.8h-12v2h12V220.8z M1349.1,220.8h-12v2h12V220.8z M1325.1,220.8h-12v2h12V220.8z M1301.1,220.8h-12v2h12V220.8z
			 M1277.1,220.8h-12v2h12V220.8z M1253.1,220.8h-12v2h12V220.8z M1229.1,220.8h-12v2h12V220.8z M1205.1,220.8h-12v2h12V220.8z
			 M1181.1,220.8h-12v2h12V220.8z M1157.1,220.8h-12v2h12V220.8z M1133.1,220.8h-12v2h12V220.8z M1109.1,220.8h-12v2h12V220.8z
			 M1085.1,220.8h-12v2h12V220.8z M1061.1,220.8h-12v2h12V220.8z M1037.1,220.8h-12v2h12V220.8z M1013.1,220.8h-12v2h12V220.8z
			 M989.1,220.8h-12v2h12V220.8z M965.1,220.8h-12v2h12V220.8z M941.1,220.8h-12v2h12V220.8z M917.1,220.8h-12v2h12V220.8z
			 M893.1,220.8h-12v2h12V220.8z M869.1,220.8h-12v2h12V220.8z M845.1,220.8h-12v2h12V220.8z M821.1,220.8h-12v2h12V220.8z
			 M797.1,220.8h-12v2h12V220.8z M773.1,220.8h-12v2h12V220.8z M749.1,220.8h-12v2h12V220.8z M731.4,206.5h-2v12h2V206.5z
			 M731.4,182.5h-2v12h2V182.5z M731.4,158.5h-2v12h2V158.5z M731.4,134.5h-2v12h2V134.5z M731.4,110.5h-2v12h2V110.5z M731.4,86.5
			h-2v12h2V86.5z M731.4,62.5h-2v12h2V62.5z M731.4,38.5h-2v12h2V38.5z M731.4,14.5h-2v12h2V14.5z M731.4,2h-2v0.5h2V2z"/>
		<path d="M1416.3,320.7h-12v2h12V320.7z M1392.3,320.7h-12v2h12V320.7z M1368.3,320.7h-12v2h12V320.7z M1344.3,320.7h-12v2h12
			V320.7z M1320.3,320.7h-12v2h12V320.7z M1296.3,320.7h-12v2h12V320.7z M1272.3,320.7h-12v2h12V320.7z M1248.3,320.7h-12v2h12
			V320.7z M1224.3,320.7h-12v2h12V320.7z M1200.3,320.7h-12v2h12V320.7z M1176.3,320.7h-12v2h12V320.7z M1152.3,320.7h-12v2h12
			V320.7z M1128.3,320.7h-12v2h12V320.7z M1104.3,320.7h-12v2h12V320.7z M1080.3,320.7h-12v2h12V320.7z M1056.3,320.7h-12v2h12
			V320.7z M1032.3,320.7h-12v2h12V320.7z M1008.3,320.7h-12v2h12V320.7z M984.3,320.7h-12v2h12V320.7z M960.3,320.7h-12v2h12V320.7z
			 M936.3,320.7h-12v2h12V320.7z M912.3,320.7h-12v2h12V320.7z M888.3,320.7h-12v2h12V320.7z M864.3,320.7h-12v2h12V320.7z
			 M840.3,320.7h-12v2h12V320.7z M816.3,320.7h-12v2h12V320.7z M792.3,320.7h-12v2h12V320.7z M768.3,320.7h-12v2h12V320.7z
			 M744.3,320.7h-12v2h12V320.7z M729.4,331.8h-2v12h2V331.8z M729.4,355.8h-2v12h2V355.8z M729.4,379.8h-2v12h2V379.8z
			 M729.4,403.8h-2v12h2V403.8z M729.4,427.8h-2v12h2V427.8z M729.4,451.8h-2v12h2V451.8z M729.4,475.8h-2v12h2V475.8z M729.4,499.8
			h-2v12h2V499.8z M729.4,523.8h-2v12h2V523.8z M729.4,547.8h-2v12h2V547.8z M729.4,571.8h-2v12h2V571.8z M729.4,595.8h-2v12h2
			V595.8z M729.4,619.8h-2v12h2V619.8z M729.4,643.8h-2v12h2V643.8z M729.4,667.8h-2v3.8h12.2v-2h-10.2V667.8L729.4,667.8z
			 M763.6,669.6h-12v2h12V669.6z M787.6,669.6h-12v2h12V669.6z M811.6,669.6h-12v2h12V669.6z M835.6,669.6h-12v2h12V669.6z
			 M859.6,669.6h-12v2h12V669.6z M883.6,669.6h-12v2h12V669.6z M907.6,669.6h-12v2h12V669.6z M931.6,669.6h-12v2h12V669.6z
			 M955.6,669.6h-12v2h12V669.6z M979.6,669.6h-12v2h12V669.6z M1003.6,669.6h-12v2h12V669.6z M1027.6,669.6h-12v2h12V669.6z
			 M1051.6,669.6h-12v2h12V669.6z M1075.6,669.6h-12v2h12V669.6z M1099.6,669.6h-12v2h12V669.6z M1123.6,669.6h-12v2h12V669.6z
			 M1147.6,669.6h-12v2h12V669.6z M1171.6,669.6h-12v2h12V669.6z M1195.6,669.6h-12v2h12V669.6z M1219.6,669.6h-12v2h12V669.6z
			 M1243.6,669.6h-12v2h12V669.6z M1267.6,669.6h-12v2h12V669.6z M1291.6,669.6h-12v2h12V669.6z M1315.6,669.6h-12v2h12V669.6z
			 M1339.6,669.6h-12v2h12V669.6z M1363.6,669.6h-12v2h12V669.6z M1387.6,669.6h-12v2h12V669.6z M1411.6,669.6h-12v2h12V669.6z
			 M1418.3,650.3h-2v12h2V650.3z M1418.3,626.3h-2v12h2V626.3z M1418.3,602.3h-2v12h2V602.3z M1418.3,578.3h-2v12h2V578.3z
			 M1418.3,554.3h-2v12h2V554.3z M1418.3,530.3h-2v12h2V530.3z M1418.3,506.3h-2v12h2V506.3z M1418.3,482.3h-2v12h2V482.3z
			 M1418.3,458.3h-2v12h2V458.3z M1418.3,434.3h-2v12h2V434.3z M1418.3,410.3h-2v12h2V410.3z M1418.3,386.3h-2v12h2V386.3z
			 M1418.3,362.3h-2v12h2V362.3z M1418.3,338.3h-2v12h2V338.3z M1418.3,322.7h-2v3.6h2V322.7z"/>
	</g>
</g>
</svg>
