<svg xmlns="http://www.w3.org/2000/svg" viewBox="0 0 1517.89 770.37"><defs><style>.cls-1{fill:#763c8f;}.cls-2{fill:#ac6f5c;}.cls-3{opacity:0.24;}.cls-4{fill:#ad7b61;}.cls-5{fill:#1d1d1b;}</style></defs><g id="Calque_2" data-name="Calque 2"><g id="Calque_11" data-name="Calque 11"><path class="cls-1" d="M407.79,436.18,390,452.91l-1.55,1.46v0C370.27,459.63,358,465,355.27,461c-2.32-3.41,4-11.52,7.34-15.71a62.83,62.83,0,0,1,26.65-19.4,24.19,24.19,0,0,1-7.95-5.47c-1.5-1.54-7.1-7.3-5.86-10.36,2-4.95,21-.41,26.81,1.08l1.35.36s1.15.31,2.71.76l0,.51V413c0,.16,0,.31,0,.47l.15,2c.31,4.53.61,9.21.88,13.63C407.58,431.93,407.7,434.25,407.79,436.18Z"/><path class="cls-2" d="M474.57,647.76c-11.65,11-22.49,15.3-25.43,16.42A73.85,73.85,0,0,1,412,668a75.47,75.47,0,0,1-36.31-16.22,39.2,39.2,0,0,1-3.15-2.9,9.18,9.18,0,0,0-13.26-.08,33.78,33.78,0,0,1-4,3.45c-8.73,6.32-32.49,20.85-62.39,15.45-28.31-5.11-44.42-24.74-49.7-31.63-12.54-16.37-18.72-36.3-21.05-56.08l70,7.21a8.88,8.88,0,0,0,1,0,9.82,9.82,0,0,0,1-19.58l-64.54-6.65a9.39,9.39,0,0,1-8.41-9.77v-.19a9.46,9.46,0,0,1,10.42-9l64.47,6.65a8.71,8.71,0,0,0,1,.05,9.82,9.82,0,0,0,1-19.59l-62.69-6.45a9.44,9.44,0,0,1-8.14-11.84l0-.19a9.4,9.4,0,0,1,10.05-6.9l62.68,6.46c.34,0,.68.05,1,.05a9.82,9.82,0,0,0,1-19.59l-64-6.6c5.48-10,11.39-17.34,18.31-26.14,3-3.82,22.58-24.82,18.19-52a52.77,52.77,0,0,0-6.65-18.27c17.25,1.73,29.29,7.37,37.21,12.46,27.54,17.7,43,52.94,44,94.94l-9.15-.95c-.34,0-.68-.05-1-.05a9.82,9.82,0,0,0-1,19.59l4.27.44a6.33,6.33,0,0,1,5.64,7.09c-.26,2-.55,4.29-.84,6.39a6.33,6.33,0,0,1-6.92,5.43l-4.1-.43c-.34,0-.68-.05-1-.05a9.82,9.82,0,0,0-1,19.59l.54.06a6.34,6.34,0,0,1,5.55,7.6c-.4,1.92-.79,3.94-1.15,6a6.33,6.33,0,0,1-6.89,5.25h0a8.88,8.88,0,0,0-1,0,9.82,9.82,0,0,0-1,19.58l7.05.73a51,51,0,0,0,1.53,10.13,26.62,26.62,0,0,0,4.8,9.4,24.63,24.63,0,0,0,5.92,4.92,25,25,0,0,0,7.58,3,71.2,71.2,0,0,1-2-16.89c0-.51,0-1,0-1.53a71.11,71.11,0,0,1,71.18-69.67c13.22,0,28.36,4.58,30,6.6-10.2-12.72-21.84-19-40.71-18.07-9.88.48-26.17,6.86-39.25,2a34.89,34.89,0,0,1-5.82-2.85,34.34,34.34,0,0,1-12.78-15c8-4.44,29.44-10.66,33.9-31a36.23,36.23,0,0,0,.66-12.7L412.69,440l-2.36-46.83c.37.16,52.51,23.57,83.55,84.48v0a153.64,153.64,0,0,1,9.23,22.71,159.65,159.65,0,0,1,7.23,47C510.39,558.15,510.58,613.9,474.57,647.76Z"/><path class="cls-1" d="M350.5,228c0,19.44,2.81,93.2-45.8,104.26-31.18,7.1-77.34-25.19-84.95-73.1-10.65-67.08,56.16-166.61,84.19-158.37C332.52,109.16,350.5,174.53,350.5,228Z"/><path class="cls-1" d="M380.7,228c0,19.44-2.81,93.2,45.8,104.26,31.18,7.1,77.34-25.19,84.95-73.1,10.64-67.08-56.16-166.61-84.19-158.37C398.68,109.16,380.7,174.53,380.7,228Z"/><path class="cls-1" d="M222,429.89c.12,9,1,71.7-35.8,86.27-23.74,9.38-54.59-4.61-70.08-24.1-41.94-52.79,16.95-169.48,55.23-170.67C199.07,320.52,221.31,379.82,222,429.89Z"/><path class="cls-1" d="M509.54,429.89c-.13,9-1,71.7,35.8,86.27,23.74,9.38,54.59-4.61,70.07-24.1,41.94-52.79-16.95-169.48-55.22-170.67C532.5,320.52,510.25,379.82,509.54,429.89Z"/><path class="cls-1" d="M767.63,466.59h-31q-7.2,0-7.2-7.2V329.79q0-7.2,7.2-7.2h89.2q7.2,0,7.2,7.2v23.8q0,7.2-7.2,7.2h-51v20.8h34.8q7.2,0,7.2,7.2v24q0,7.2-7.2,7.2h-34.8v39.4Q774.83,466.59,767.63,466.59Z"/><path class="cls-1" d="M962,466.59H860.23q-7.2,0-7.2-7.2V329.79q0-7.2,7.2-7.2h31q7.2,0,7.2,7.2v99h27.4v-32.4q0-7.2,7.2-7.2h29q7.2,0,7.2,7.2v63Q969.23,466.59,962,466.59Z"/><path class="cls-1" d="M1114.63,428.79a49,49,0,0,1-2.7,16.7,28.53,28.53,0,0,1-9.6,12.9q-6.9,5.4-18.9,8.3t-30.6,2.9q-18.6,0-30.6-2.9t-18.9-8.3a28.53,28.53,0,0,1-9.6-12.9,49,49,0,0,1-2.7-16.7v-99q0-7.2,7.2-7.2h31.4q7.2,0,7.2,7.2V421a8.65,8.65,0,0,0,3,6.7q3,2.7,13.4,2.7,10.61,0,13.6-2.7a8.65,8.65,0,0,0,3-6.7v-91.2q0-7.2,7.2-7.2h30.4q7.2,0,7.2,7.2Z"/><path class="cls-1" d="M1179.43,466.59h-31q-7.2,0-7.2-7.2V329.79q0-7.2,7.2-7.2h89.2q7.2,0,7.2,7.2v23.8q0,7.2-7.2,7.2h-51v20.8h34.8q7.2,0,7.2,7.2v24q0,7.2-7.2,7.2h-34.8v39.4Q1186.63,466.59,1179.43,466.59Z"/><path class="cls-1" d="M1303,466.59h-31q-7.2,0-7.2-7.2V329.79q0-7.2,7.2-7.2h89.2q7.2,0,7.2,7.2v23.8q0,7.2-7.2,7.2h-51v20.8H1345q7.2,0,7.2,7.2v24q0,7.2-7.2,7.2h-34.8v39.4Q1310.23,466.59,1303,466.59Z"/><path class="cls-2" d="M767.43,666.59h-30.8q-7.2,0-7.2-7.2V529.79q0-7.2,7.2-7.2h66.6q15,0,23.6,4.2t12.2,11.7a40,40,0,0,1,3.6,17.5v9.2a37.16,37.16,0,0,1-2.4,14.2,15.88,15.88,0,0,1-8.8,8.6q11,1.2,17.6,8.8t6.6,20.2v42.4q0,7.2-7.2,7.2h-31q-7.2,0-7.2-7.2v-30.6q0-4.59-1.7-6.6t-5.9-2h-28v39.2Q774.63,666.59,767.43,666.59Zm7.2-108v25.6h15q5.21,0,7-2.7a11.81,11.81,0,0,0,1.8-6.7V568a11.83,11.83,0,0,0-1.8-6.7q-1.8-2.7-7-2.7Z"/><path class="cls-2" d="M918.83,659.39q0,7.2-7.2,7.2h-29.4q-7.2,0-7.2-7.2v-52.8a59,59,0,0,1,1.9-13.8,152.57,152.57,0,0,1,5.9-18.2l17.4-45.4q2.21-6.6,10.2-6.6h53.8q7.8,0,10,6.6l17.4,45.4a152.57,152.57,0,0,1,5.9,18.2,59,59,0,0,1,1.9,13.8v52.8q0,7.2-7.2,7.2H962q-7.8,0-7.8-7.2v-28h-35.4Zm11.4-94.8-9.4,30.4h31.4l-9.4-30.4c-.93-2.26-2.2-3.4-3.8-3.4h-5C932.43,561.19,931.16,562.33,930.23,564.59Z"/><path class="cls-2" d="M1098.63,666.59h-67.4q-7.2,0-7.2-7.2V529.79q0-7.2,7.2-7.2h67.4q25.2,0,37.2,10t12,30.8v62.4q0,20.81-12,30.8T1098.63,666.59Zm-29.2-105.8v68h23.8q9.4,0,9.4-9.8v-48.6q0-9.6-9.4-9.6Z"/><path class="cls-2" d="M1177.23,666.59q-7.2,0-7.2-7.2v-23.8q0-7.2,7.2-7.2H1197v-67.2h-19.8q-7.2,0-7.2-7.2v-24.2q0-7.2,7.2-7.2h85.2q7.2,0,7.2,7.2V554q0,7.2-7.2,7.2H1243v67.2h19.4q7.2,0,7.2,7.2v23.8q0,7.2-7.2,7.2Z"/><path class="cls-2" d="M1416.23,628.79a49,49,0,0,1-2.7,16.7,28.8,28.8,0,0,1-9.5,12.9q-6.81,5.4-18.9,8.3t-30.9,2.9q-18.81,0-30.9-2.9t-18.9-8.3a29.41,29.41,0,0,1-9.6-12.9,47.34,47.34,0,0,1-2.8-16.7v-68.2a47.38,47.38,0,0,1,2.8-16.7,29.41,29.41,0,0,1,9.6-12.9q6.79-5.4,18.9-8.4t30.9-3q18.8,0,30.9,3T1404,531a28.8,28.8,0,0,1,9.5,12.9,49,49,0,0,1,2.7,16.7Zm-78.8-7.2a8.65,8.65,0,0,0,3,6.7q3,2.7,13.8,2.7,11,0,13.9-2.7a8.79,8.79,0,0,0,2.9-6.7v-53.8a8.51,8.51,0,0,0-2.9-6.6q-2.91-2.6-13.9-2.6-10.8,0-13.8,2.6a8.37,8.37,0,0,0-3,6.6Z"/><g class="cls-3"><path class="cls-4" d="M637,560.74q-7.2,0-7.2-7.2v-23.8q0-7.2,7.2-7.2h19.8v-67.2H637q-7.2,0-7.2-7.2v-24.2q0-7.2,7.2-7.2h85.2q7.2,0,7.2,7.2v24.2q0,7.2-7.2,7.2h-19.4v67.2h19.4q7.2,0,7.2,7.2v23.8q0,7.2-7.2,7.2Z"/></g><g class="cls-3"><path class="cls-4" d="M9.2,560.74q-7.2,0-7.2-7.2v-23.8q0-7.2,7.2-7.2H29v-67.2H9.2q-7.2,0-7.2-7.2v-24.2q0-7.2,7.2-7.2H94.4q7.2,0,7.2,7.2v24.2q0,7.2-7.2,7.2H75v67.2H94.4q7.2,0,7.2,7.2v23.8q0,7.2-7.2,7.2Z"/></g><g class="cls-3"><path class="cls-4" d="M293.79,676c0-4.79,2.4-7.2,7.2-7.2h23.8c4.8,0,7.2,2.41,7.2,7.2v19.8h67.2V676c0-4.79,2.4-7.2,7.2-7.2h24.2c4.8,0,7.2,2.41,7.2,7.2v85.21c0,4.79-2.4,7.2-7.2,7.2h-24.2c-4.8,0-7.2-2.41-7.2-7.2V741.76H332v19.41c0,4.79-2.4,7.2-7.2,7.2H301c-4.8,0-7.2-2.41-7.2-7.2Z"/></g><g class="cls-3"><path class="cls-4" d="M1231.16,676.79q0-7.2,7.2-7.2h23.8q7.2,0,7.2,7.2v19.8h67.2v-19.8q0-7.2,7.2-7.2H1368q7.2,0,7.2,7.2V762q0,7.2-7.2,7.2h-24.2q-7.2,0-7.2-7.2v-19.4h-67.2V762q0,7.2-7.2,7.2h-23.8q-7.2,0-7.2-7.2Z"/></g><g class="cls-3"><path class="cls-4" d="M729.37,230.3q0-7.2,7.2-7.21h23.8q7.2,0,7.2,7.21v19.79h67.2V230.3q0-7.2,7.2-7.21h24.2q7.2,0,7.2,7.21v85.2q0,7.2-7.2,7.2H842q-7.2,0-7.2-7.2V296.09h-67.2V315.5q0,7.2-7.2,7.2h-23.8q-7.2,0-7.2-7.2Z"/></g><g class="cls-3"><path class="cls-4" d="M282.77,7.88q0-7.2,7.21-7.2h23.79q7.2,0,7.21,7.2v19.8h67.2V7.88q0-7.2,7.19-7.2h24.2q7.2,0,7.2,7.2v85.2q0,7.2-7.2,7.2h-24.2q-7.2,0-7.19-7.2V73.68H321v19.4q0,7.2-7.21,7.2H290q-7.2,0-7.21-7.2Z"/></g><g class="cls-3"><path class="cls-4" d="M1423.49,560.74q-7.2,0-7.2-7.2v-23.8q0-7.2,7.2-7.2h19.8v-67.2h-19.8q-7.2,0-7.2-7.2v-24.2q0-7.2,7.2-7.2h85.2q7.2,0,7.2,7.2v24.2q0,7.2-7.2,7.2h-19.4v67.2h19.4q7.2,0,7.2,7.2v23.8q0,7.2-7.2,7.2Z"/></g><path class="cls-5" d="M629.87,98.28h-12v2h12v-2Zm-24,0h-12v2h12v-2Zm-24,0h-12v2h12v-2Zm-24,0h-12v2h12v-2Zm-24,0h-12v2h12v-2Zm-24,0h-12v2h12v-2Zm-24,0h-12v2h12v-2Zm-24,0h-12v2h12v-2Zm-24,0h-12v2h12v-2Zm-24,0h-12v2h12v-2Zm-24,0h-12v2h12v-2Zm-24,0h-12v2h12v-2Zm-24,0h-12v2h12v-2Zm-24,0h-12v2h12v-2Zm-24,0h-12v2h12v-2Zm-24,0h-12v2h12v-2Zm-24,0h-12v2h12v-2Zm-24,0h-12v2h12v-2Zm-24,0h-12v2h12v-2Zm-24,0h-12v2h12v-2Zm-24,0h-12v2h12v-2Zm-24,0h-12v2h12v-2Zm-24,0H99.6V112h2V100.28h.27v-2ZM101.6,124h-2v12h2V124Zm0,24h-2v12h2V148Zm0,24h-2v12h2V172Zm0,24h-2v12h2V196Zm0,24h-2v12h2V220Zm0,24h-2v12h2V244Zm0,24h-2v12h2V268Zm0,24h-2v12h2V292Zm0,24h-2v12h2V316Zm0,24h-2v12h2V340Zm0,24h-2v12h2V364Zm0,24h-2v12h2V388Zm0,24h-2v12h2V412Zm0,24h-2v12h2V436Zm0,24h-2v12h2V460Zm0,24h-2v12h2V484Zm0,24h-2v12h2V508Zm0,24h-2v12h2V532Zm0,24h-2v12h2V556Zm0,24h-2v12h2V580Zm0,24h-2v12h2V604Zm0,24h-2v12h2V628Zm0,24h-2v12h2V652Zm19.09,16.9h-12v2h12v-2Zm24,0h-12v2h12v-2Zm24,0h-12v2h12v-2Zm24,0h-12v2h12v-2Zm24,0h-12v2h12v-2Zm24,0h-12v2h12v-2Zm24,0h-12v2h12v-2Zm24,0h-12v2h12v-2Zm24,0h-12v2h12v-2Zm24,0h-12v2h12v-2Zm24,0h-12v2h12v-2Zm24,0h-12v2h12v-2Zm24,0h-12v2h12v-2Zm24,0h-12v2h12v-2Zm24,0h-12v2h12v-2Zm24,0h-12v2h12v-2Zm24,0h-12v2h12v-2Zm24,0h-12v2h12v-2Zm24,0h-12v2h12v-2Zm24,0h-12v2h12v-2Zm24,0h-12v2h12v-2Zm24,0h-12v2h12v-2Zm7.18-18.82h-2v12h2v-12Zm0-24h-2v12h2v-12Zm0-24h-2v12h2v-12Zm0-24h-2v12h2v-12Zm0-24h-2v12h2v-12Zm0-24h-2v12h2v-12Zm0-24h-2v12h2v-12Zm0-24h-2v12h2v-12Zm0-24h-2v12h2v-12Zm0-24h-2v12h2v-12Zm0-24h-2v12h2v-12Zm0-24h-2v12h2v-12Zm0-24h-2v12h2v-12Zm0-24h-2v12h2v-12Zm0-24h-2v12h2v-12Zm0-24h-2v12h2v-12Zm0-24h-2v12h2v-12Zm0-24h-2v12h2v-12Zm0-24h-2v12h2v-12Zm0-24h-2v12h2v-12Zm0-24h-2v12h2v-12Zm0-24h-2v12h2v-12Zm0-24h-2v12h2v-12Zm0-21.81h-2v9.81h2v-9.81Z"/><path class="cls-5" d="M729.43,0h-12V2h12V0Zm-24,0h-12V2h12V0Zm-24,0h-12V2h12V0Zm-24,0h-12V2h12V0Zm-24,0h-12V2h12V0Zm-24,0h-12V2h12V0Zm-24,0h-12V2h12V0Zm-24,0h-12V2h12V0Zm-24,0h-12V2h12V0Zm-24,0h-12V2h12V0Zm-24,0h-12V2h12V0Zm-24,0h-12V2h12V0Zm-24,0h-12V2h12V0Zm-24,0h-12V2h12V0Zm-24,0h-12V2h12V0Zm-24,0h-12V2h12V0Zm-24,0h-12V2h12V0Zm-24,0h-12V2h12V0Zm-24,0h-12V2h12V0Zm-24,0h-12V2h12V0Zm-24,0h-12V2h12V0Zm-24,0h-12V2h12V0Zm-24,0h-12V2h12V0Zm-24,0h-12V2h12V0Zm-24,0h-12V2h12V0Zm-24,0h-12V2h12V0Zm-24,0h-12V2h12V0Zm-24,0h-12V2h12V0Zm-24,0h-12V2h12V0Zm-24,0h-12V2h12V0Zm-24,0H0V6.57H2V2H9.43V0ZM2,18.57H0v12H2v-12Zm0,24H0v12H2v-12Zm0,24H0v12H2v-12Zm0,24H0v12H2v-12Zm0,24H0v12H2v-12Zm0,24H0v12H2v-12Zm0,24H0v12H2v-12Zm0,24H0v12H2v-12Zm0,24H0v12H2v-12Zm0,24H0v12H2v-12Zm0,24H0v12H2v-12Zm0,24H0v12H2v-12Zm0,24H0v12H2v-12Zm0,24H0v12H2v-12Zm0,24H0v12H2v-12Zm0,24H0v12H2v-12Zm0,24H0v12H2v-12Zm0,24H0v12H2v-12Zm0,24H0v12H2v-12Zm0,24H0v12H2v-12Zm0,24H0v12H2v-12Zm0,24H0v12H2v-12Zm0,24H0v12H2v-12Zm0,24H0v12H2v-12Zm0,24H0v12H2v-12Zm0,24H0v12H2v-12Zm0,24H0v12H2v-12Zm0,24H0v12H2v-12Zm0,24H0v12H2v-12Zm0,24H0v12H2v-12Zm0,24H0v12H2v-12Zm0,24H0v7.8H8.2v-2H2v-5.8Zm30.2,5.8h-12v2h12v-2Zm24,0h-12v2h12v-2Zm24,0h-12v2h12v-2Zm24,0h-12v2h12v-2Zm24,0h-12v2h12v-2Zm24,0h-12v2h12v-2Zm24,0h-12v2h12v-2Zm24,0h-12v2h12v-2Zm24,0h-12v2h12v-2Zm24,0h-12v2h12v-2Zm24,0h-12v2h12v-2Zm24,0h-12v2h12v-2Zm24,0h-12v2h12v-2Zm24,0h-12v2h12v-2Zm24,0h-12v2h12v-2Zm24,0h-12v2h12v-2Zm24,0h-12v2h12v-2Zm24,0h-12v2h12v-2Zm24,0h-12v2h12v-2Zm24,0h-12v2h12v-2Zm24,0h-12v2h12v-2Zm24,0h-12v2h12v-2Zm24,0h-12v2h12v-2Zm24,0h-12v2h12v-2Zm24,0h-12v2h12v-2Zm24,0h-12v2h12v-2Zm24,0h-12v2h12v-2Zm24,0h-12v2h12v-2Zm24,0h-12v2h12v-2Zm24,0h-12v2h12v-2Zm24,0h-12v2h12v-2Zm24,0h-12v2h12v-2Zm24,0h-12v2h12v-2Zm24,0h-12v2h12v-2Zm24,0h-12v2h12v-2Zm24,0h-12v2h12v-2Zm24,0h-12v2h12v-2Zm24,0h-12v2h12v-2Zm24,0h-12v2h12v-2Zm24,0h-12v2h12v-2Zm24,0h-12v2h12v-2Zm24,0h-12v2h12v-2Zm24,0h-12v2h12v-2Zm24,0h-12v2h12v-2Zm24,0h-12v2h12v-2Zm24,0h-12v2h12v-2Zm24,0h-12v2h12v-2Zm24,0h-12v2h12v-2Zm24,0h-12v2h12v-2Zm24,0h-12v2h12v-2Zm24,0h-12v2h12v-2Zm24,0h-12v2h12v-2Zm24,0h-12v2h12v-2Zm24,0h-12v2h12v-2Zm24,0h-12v2h12v-2Zm24,0h-12v2h12v-2Zm24,0h-12v2h12v-2Zm24,0h-12v2h12v-2Zm24,0h-12v2h12v-2Zm24,0h-12v2h12v-2Zm24,0h-12v2h12v-2Zm24,0h-12v2h12v-2Zm21.69-4.32h-2v4.32h-7.69v2h9.69v-6.32Zm0-24h-2v12h2v-12Zm0-24h-2v12h2v-12Zm0-24h-2v12h2v-12Zm0-24h-2v12h2v-12Zm0-24h-2v12h2v-12Zm0-24h-2v12h2v-12Zm0-24h-2v12h2v-12Zm0-24h-2v12h2v-12Zm0-24h-2v12h2v-12Zm0-24h-2v12h2v-12Zm0-24h-2v12h2v-12Zm0-24h-2v12h2v-12Zm0-24h-2v12h2v-12Zm0-24h-2v12h2v-12Zm0-24h-2v12h2v-12Zm0-24h-2v12h2v-12Zm0-24h-2v12h2v-12Zm0-24h-2v12h2v-12Zm0-24h-2v12h2v-12Zm0-24h-2v12h2v-12Zm0-24h-2v12h2v-12Zm0-24h-2v12h2v-12Zm0-15.2h-12.8v2h10.8v1.2h2v-3.2Zm-24.8,0h-12v2h12v-2Zm-24,0h-12v2h12v-2Zm-24,0h-12v2h12v-2Zm-24,0h-12v2h12v-2Zm-24,0h-12v2h12v-2Zm-24,0h-12v2h12v-2Zm-24,0h-12v2h12v-2Zm-24,0h-12v2h12v-2Zm-24,0h-12v2h12v-2Zm-24,0h-12v2h12v-2Zm-24,0h-12v2h12v-2Zm-24,0h-12v2h12v-2Zm-24,0h-12v2h12v-2Zm-24,0h-12v2h12v-2Zm-24,0h-12v2h12v-2Zm-24,0h-12v2h12v-2Zm-24,0h-12v2h12v-2Zm-24,0h-12v2h12v-2Zm-24,0h-12v2h12v-2Zm-24,0h-12v2h12v-2Zm-24,0h-12v2h12v-2Zm-24,0h-12v2h12v-2Zm-24,0h-12v2h12v-2Zm-24,0h-12v2h12v-2Zm-24,0h-12v2h12v-2Zm-24,0h-12v2h12v-2Zm-24,0h-12v2h12v-2Zm-24,0h-12v2h12v-2Zm-24,0h-12v2h12v-2Zm-24,0h-12v2h12v-2Zm-24,0h-12v2h12v-2Zm-24,0h-12v2h12v-2Zm-17.66-14.34h-2v12h2v-12Zm0-24h-2v12h2v-12Zm0-24h-2v12h2v-12Zm0-24h-2v12h2v-12Zm0-24h-2v12h2v-12Zm0-24h-2v12h2v-12Zm0-24h-2v12h2v-12Zm0-24h-2v12h2v-12Zm0-24h-2v12h2v-12Zm0-12.51h-2v.51h2V2Z"/><path class="cls-5" d="M1416.29,320.7h-12v2h12v-2Zm-24,0h-12v2h12v-2Zm-24,0h-12v2h12v-2Zm-24,0h-12v2h12v-2Zm-24,0h-12v2h12v-2Zm-24,0h-12v2h12v-2Zm-24,0h-12v2h12v-2Zm-24,0h-12v2h12v-2Zm-24,0h-12v2h12v-2Zm-24,0h-12v2h12v-2Zm-24,0h-12v2h12v-2Zm-24,0h-12v2h12v-2Zm-24,0h-12v2h12v-2Zm-24,0h-12v2h12v-2Zm-24,0h-12v2h12v-2Zm-24,0h-12v2h12v-2Zm-24,0h-12v2h12v-2Zm-24,0h-12v2h12v-2Zm-24,0h-12v2h12v-2Zm-24,0h-12v2h12v-2Zm-24,0h-12v2h12v-2Zm-24,0h-12v2h12v-2Zm-24,0h-12v2h12v-2Zm-24,0h-12v2h12v-2Zm-24,0h-12v2h12v-2Zm-24,0h-12v2h12v-2Zm-24,0h-12v2h12v-2Zm-24,0h-12v2h12v-2Zm-24,0h-12v2h12v-2Zm-14.92,11.07h-2v12h2v-12Zm0,24h-2v12h2v-12Zm0,24h-2v12h2v-12Zm0,24h-2v12h2v-12Zm0,24h-2v12h2v-12Zm0,24h-2v12h2v-12Zm0,24h-2v12h2v-12Zm0,24h-2v12h2v-12Zm0,24h-2v12h2v-12Zm0,24h-2v12h2v-12Zm0,24h-2v12h2v-12Zm0,24h-2v12h2v-12Zm0,24h-2v12h2v-12Zm0,24h-2v12h2v-12Zm0,24h-2v3.82h12.18v-2H729.37v-1.82Zm34.18,1.82h-12v2h12v-2Zm24,0h-12v2h12v-2Zm24,0h-12v2h12v-2Zm24,0h-12v2h12v-2Zm24,0h-12v2h12v-2Zm24,0h-12v2h12v-2Zm24,0h-12v2h12v-2Zm24,0h-12v2h12v-2Zm24,0h-12v2h12v-2Zm24,0h-12v2h12v-2Zm24,0h-12v2h12v-2Zm24,0h-12v2h12v-2Zm24,0h-12v2h12v-2Zm24,0h-12v2h12v-2Zm24,0h-12v2h12v-2Zm24,0h-12v2h12v-2Zm24,0h-12v2h12v-2Zm24,0h-12v2h12v-2Zm24,0h-12v2h12v-2Zm24,0h-12v2h12v-2Zm24,0h-12v2h12v-2Zm24,0h-12v2h12v-2Zm24,0h-12v2h12v-2Zm24,0h-12v2h12v-2Zm24,0h-12v2h12v-2Zm24,0h-12v2h12v-2Zm24,0h-12v2h12v-2Zm24,0h-12v2h12v-2Zm6.74-19.26h-2v12h2v-12Zm0-24h-2v12h2v-12Zm0-24h-2v12h2v-12Zm0-24h-2v12h2v-12Zm0-24h-2v12h2v-12Zm0-24h-2v12h2v-12Zm0-24h-2v12h2v-12Zm0-24h-2v12h2v-12Zm0-24h-2v12h2v-12Zm0-24h-2v12h2v-12Zm0-24h-2v12h2v-12Zm0-24h-2v12h2v-12Zm0-24h-2v12h2v-12Zm0-24h-2v12h2v-12Zm0-15.63h-2v3.63h2V322.7Z"/></g></g></svg>