<svg xmlns="http://www.w3.org/2000/svg" viewBox="0 0 528.17 568.64"><defs><style>.cls-1{fill:#763c8f;}.cls-2{fill:#ac6f5c;}</style></defs><g id="Calque_2" data-name="Calque 2"><g id="Calque_11" data-name="Calque 11"><path class="cls-1" d="M306.09,335.9l-17.8,16.73-1.54,1.46v0c-18.17,5.22-30.48,10.56-33.17,6.61-2.32-3.41,4-11.52,7.33-15.71a62.94,62.94,0,0,1,26.66-19.4,24.21,24.21,0,0,1-8-5.47c-1.5-1.54-7.09-7.3-5.85-10.36,2-4.95,21-.41,26.81,1.08l1.34.36s1.16.31,2.72.76l0,.51v.19l0,.47.14,2c.31,4.53.62,9.21.88,13.63C305.89,331.65,306,334,306.09,335.9Z"/><path class="cls-2" d="M372.87,547.49c-11.65,11-22.49,15.3-25.43,16.42a73.85,73.85,0,0,1-37.11,3.85A75.47,75.47,0,0,1,274,551.54a39.2,39.2,0,0,1-3.15-2.9,9.18,9.18,0,0,0-13.26-.08,33.78,33.78,0,0,1-4,3.45c-8.73,6.32-32.49,20.85-62.39,15.45-28.31-5.11-44.42-24.74-49.7-31.63-12.54-16.37-18.72-36.3-21-56.08l70,7.21a8.88,8.88,0,0,0,1,.05,9.82,9.82,0,0,0,1-19.58l-64.54-6.66a9.38,9.38,0,0,1-8.41-9.76v-.19a9.45,9.45,0,0,1,10.42-9l64.47,6.65a8.71,8.71,0,0,0,1,.05,9.82,9.82,0,0,0,1-19.59l-62.69-6.46a9.43,9.43,0,0,1-8.14-11.84l.05-.18a9.41,9.41,0,0,1,10-6.91L198.38,410c.34,0,.68,0,1,0a9.82,9.82,0,0,0,1-19.59l-64-6.6c5.48-10,11.39-17.34,18.31-26.14,3-3.82,22.58-24.82,18.19-52a52.77,52.77,0,0,0-6.65-18.27c17.25,1.73,29.29,7.37,37.21,12.46,27.54,17.7,43,52.94,44,94.94l-9.15-.95c-.34,0-.68-.05-1-.05a9.82,9.82,0,0,0-1,19.59l4.28.43A6.34,6.34,0,0,1,246.2,421c-.25,2-.55,4.29-.83,6.39a6.34,6.34,0,0,1-6.93,5.43l-4.1-.42c-.34,0-.68-.05-1-.05a9.82,9.82,0,0,0-1,19.59l.55,0a6.33,6.33,0,0,1,5.54,7.6c-.4,1.92-.79,3.94-1.15,6a6.35,6.35,0,0,1-6.89,5.25h0a8.88,8.88,0,0,0-1-.05,9.82,9.82,0,0,0-1,19.58l7,.73a51,51,0,0,0,1.53,10.13,26.62,26.62,0,0,0,4.8,9.4,24.63,24.63,0,0,0,5.92,4.92,25,25,0,0,0,7.58,3,71.2,71.2,0,0,1-2-16.89c0-.51,0-1,0-1.53a71.11,71.11,0,0,1,71.18-69.67c13.22,0,28.36,4.58,30,6.6-10.2-12.72-21.84-19-40.71-18.07-9.88.48-26.17,6.86-39.25,2.05a34.89,34.89,0,0,1-5.82-2.85,34.34,34.34,0,0,1-12.78-15.05c8-4.44,29.44-10.66,33.9-31a36.23,36.23,0,0,0,.66-12.7L311,339.76l-2.36-46.83c.37.16,52.51,23.57,83.55,84.48v0a153.64,153.64,0,0,1,9.23,22.71,159.65,159.65,0,0,1,7.23,47C408.69,457.88,408.88,513.63,372.87,547.49Z"/><path class="cls-1" d="M248.8,127.69c0,19.44,2.81,93.2-45.8,104.27-31.18,7.09-77.34-25.2-84.95-73.11C107.41,91.77,174.21-7.76,202.24.48,230.82,8.88,248.8,74.26,248.8,127.69Z"/><path class="cls-1" d="M279,127.69c0,19.44-2.8,93.2,45.8,104.27,31.18,7.09,77.34-25.2,84.95-73.11C420.4,91.77,353.6-7.76,325.56.48,297,8.88,279,74.26,279,127.69Z"/><path class="cls-1" d="M120.33,329.62c.13,9,1,71.7-35.8,86.26-23.74,9.39-54.59-4.6-70.07-24.1-41.95-52.79,17-169.47,55.22-170.67C97.37,220.24,119.61,279.55,120.33,329.62Z"/><path class="cls-1" d="M407.84,329.62c-.13,9-1,71.7,35.8,86.26,23.74,9.39,54.59-4.6,70.07-24.1,41.95-52.79-17-169.47-55.22-170.67C430.8,220.24,408.56,279.55,407.84,329.62Z"/></g></g></svg>